<svg xmlns="http://www.w3.org/2000/svg" xmlns:xlink="http://www.w3.org/1999/xlink" width="500" zoomAndPan="magnify" viewBox="0 0 375 374.999991" height="500" preserveAspectRatio="xMidYMid meet" version="1.0"><defs><clipPath id="23393752ae"><path d="M 29 34 L 341.542969 34 L 341.542969 346 L 29 346 Z M 29 34 " clip-rule="nonzero"/></clipPath></defs><path fill="#ff9157" d="M 270.757812 215.164062 C 266.511719 215.164062 262.699219 212.46875 261.265625 208.460938 L 251.792969 211.800781 C 254.625 219.839844 262.246094 225.222656 270.757812 225.222656 C 279.265625 225.222656 286.910156 219.839844 289.738281 211.800781 L 280.246094 208.460938 C 278.832031 212.46875 275.019531 215.164062 270.757812 215.164062 " fill-opacity="1" fill-rule="nonzero"/><g clip-path="url(#23393752ae)"><path fill="#ff9157" d="M 275.785156 235.285156 L 265.726562 235.285156 C 256.332031 235.285156 247.492188 231.628906 240.828125 224.96875 C 234.1875 218.324219 230.511719 209.484375 230.511719 200.070312 L 230.511719 165.9375 C 230.511719 158.90625 235.503906 152.714844 242.363281 151.203125 L 246.644531 150.257812 C 253.070312 156.191406 261.539062 159.828125 270.757812 159.828125 L 311 159.828125 L 311 200.070312 C 311 219.484375 295.199219 235.285156 275.785156 235.285156 Z M 316.03125 280.558594 L 316.03125 335.890625 L 295.90625 335.890625 L 295.90625 280.558594 C 295.90625 277.785156 298.167969 275.527344 300.9375 275.527344 L 311 275.527344 C 313.789062 275.527344 316.03125 277.785156 316.03125 280.558594 Z M 54.449219 280.558594 C 54.449219 277.785156 56.710938 275.527344 59.480469 275.527344 L 69.539062 275.527344 C 72.332031 275.527344 74.570312 277.785156 74.570312 280.558594 L 74.570312 335.890625 L 54.449219 335.890625 Z M 285.847656 280.558594 L 285.847656 285.585938 L 265.726562 285.585938 L 265.726562 280.558594 C 265.726562 272.226562 258.964844 265.464844 250.632812 265.464844 L 242.382812 265.464844 C 246.546875 253.65625 257.707031 245.34375 270.757812 245.34375 C 283.746094 245.34375 295.121094 253.753906 299.269531 265.644531 C 291.742188 266.488281 285.847656 272.816406 285.847656 280.558594 Z M 265.726562 315.769531 L 285.847656 315.769531 L 285.847656 335.890625 L 265.726562 335.890625 Z M 265.726562 295.648438 L 285.847656 295.648438 L 285.847656 305.710938 L 265.726562 305.710938 Z M 235.542969 280.558594 C 235.542969 277.785156 237.804688 275.527344 240.574219 275.527344 L 250.632812 275.527344 C 253.425781 275.527344 255.664062 277.785156 255.664062 280.558594 L 255.664062 335.890625 L 235.542969 335.890625 Z M 205.359375 315.769531 L 225.484375 315.769531 L 225.484375 335.890625 L 205.359375 335.890625 Z M 205.359375 295.648438 L 225.484375 295.648438 L 225.484375 305.710938 L 205.359375 305.710938 Z M 195.300781 335.890625 L 175.179688 335.890625 L 175.179688 280.558594 C 175.179688 277.785156 177.4375 275.527344 180.210938 275.527344 L 190.269531 275.527344 C 193.058594 275.527344 195.300781 277.785156 195.300781 280.558594 Z M 144.996094 315.769531 L 165.117188 315.769531 L 165.117188 335.890625 L 144.996094 335.890625 Z M 144.996094 295.648438 L 165.117188 295.648438 L 165.117188 305.710938 L 144.996094 305.710938 Z M 114.8125 280.558594 C 114.8125 277.785156 117.074219 275.527344 119.84375 275.527344 L 129.90625 275.527344 C 132.695312 275.527344 134.9375 277.785156 134.9375 280.558594 L 134.9375 335.890625 L 114.8125 335.890625 Z M 84.632812 315.769531 L 104.753906 315.769531 L 104.753906 335.890625 L 84.632812 335.890625 Z M 104.753906 305.710938 L 84.632812 305.710938 L 84.632812 295.648438 L 104.753906 295.648438 Z M 119.84375 265.464844 C 111.53125 265.464844 104.753906 272.226562 104.753906 280.558594 L 104.753906 285.585938 L 84.632812 285.585938 L 84.632812 280.558594 C 84.632812 276.117188 82.667969 272.148438 79.601562 269.394531 L 79.601562 215.164062 L 119.84375 215.164062 Z M 59.480469 144.738281 L 200.722656 144.738281 C 200.488281 146.523438 200.332031 148.332031 200.332031 150.179688 L 200.332031 159.964844 C 200.332031 165.015625 201.351562 170.085938 203.179688 174.820312 C 201.410156 177.828125 200.332031 181.265625 200.332031 184.980469 C 200.332031 196.082031 209.371094 205.101562 220.453125 205.101562 L 220.746094 205.101562 C 221.867188 215.28125 226.367188 224.730469 233.714844 232.082031 C 238.039062 236.402344 243.070312 239.722656 248.550781 241.984375 C 239.472656 247.976562 232.96875 257.566406 231.101562 268.90625 C 227.703125 271.675781 225.484375 275.839844 225.484375 280.558594 L 225.484375 285.585938 L 205.359375 285.585938 L 205.359375 280.558594 C 205.359375 272.226562 198.601562 265.464844 190.269531 265.464844 L 180.210938 265.464844 C 171.898438 265.464844 165.117188 272.226562 165.117188 280.558594 L 165.117188 285.585938 L 144.996094 285.585938 L 144.996094 280.558594 C 144.996094 272.226562 138.238281 265.464844 129.90625 265.464844 L 129.90625 205.101562 L 69.539062 205.101562 L 69.539062 265.464844 L 59.480469 265.464844 Z M 40.046875 132.160156 C 39.378906 131 39.179688 129.644531 39.535156 128.347656 C 39.890625 127.03125 40.695312 125.972656 41.914062 125.265625 L 133.207031 71.128906 C 137.292969 68.710938 142.65625 68.710938 146.746094 71.167969 L 220.039062 115.066406 C 216.914062 116.972656 214.046875 119.269531 211.570312 121.902344 L 139.984375 80.109375 L 46.902344 134.007812 C 44.585938 135.363281 41.382812 134.480469 40.046875 132.160156 Z M 49.417969 64.25 L 79.601562 64.25 L 79.601562 91.210938 L 49.417969 109.113281 Z M 39.359375 44.128906 L 89.664062 44.128906 L 89.683594 54.191406 L 39.359375 54.191406 Z M 139.964844 99.464844 C 128.882812 99.464844 119.84375 108.484375 119.84375 119.585938 C 119.84375 125.617188 122.574219 130.980469 126.800781 134.675781 L 65.828125 134.675781 L 139.964844 91.761719 L 205.578125 130.058594 C 204.730469 131.53125 204.023438 133.085938 203.375 134.675781 L 153.152344 134.675781 C 157.375 130.980469 160.085938 125.617188 160.085938 119.585938 C 160.085938 108.484375 151.066406 99.464844 139.964844 99.464844 Z M 129.90625 119.585938 C 129.90625 114.042969 134.425781 109.523438 139.964844 109.523438 C 145.527344 109.523438 150.027344 114.042969 150.027344 119.585938 C 150.027344 125.125 145.527344 129.644531 139.964844 129.644531 C 134.425781 129.644531 129.90625 125.125 129.90625 119.585938 Z M 220.453125 195.039062 C 214.910156 195.039062 210.390625 190.519531 210.390625 184.980469 C 210.390625 179.4375 214.910156 174.917969 220.453125 174.917969 Z M 239.628906 118.976562 L 240.4375 115.773438 C 242.832031 106.164062 251.421875 99.464844 261.324219 99.464844 L 279.246094 99.464844 C 307.855469 99.464844 331.121094 122.730469 331.121094 151.339844 C 331.121094 156.507812 330.355469 161.558594 328.859375 166.429688 C 326.464844 165.429688 323.832031 164.859375 321.058594 164.859375 L 321.058594 149.765625 C 321.058594 138.664062 312.039062 129.644531 300.9375 129.644531 L 300.9375 139.707031 C 306.5 139.707031 311 144.226562 311 149.765625 L 300.9375 149.765625 C 288.753906 149.765625 278.183594 141.101562 275.785156 129.136719 L 275.6875 128.644531 L 265.921875 131.121094 C 267.394531 138.46875 271.1875 144.855469 276.316406 149.765625 L 270.757812 149.765625 C 258.574219 149.765625 248 141.101562 245.605469 129.136719 L 245.507812 128.644531 L 235.738281 131.121094 C 236.488281 134.871094 237.902344 138.332031 239.691406 141.535156 C 228.882812 144.167969 221.042969 153.777344 220.550781 164.859375 L 220.453125 164.859375 C 217.132812 164.859375 214.046875 165.742188 211.277344 167.175781 C 210.707031 164.800781 210.390625 162.382812 210.390625 159.964844 L 210.390625 150.179688 C 210.390625 134.910156 221.316406 122.023438 236.367188 119.507812 Z M 321.058594 195.039062 L 321.058594 174.917969 C 326.621094 174.917969 331.121094 179.4375 331.121094 184.980469 C 331.121094 190.519531 326.621094 195.039062 321.058594 195.039062 Z M 320.765625 205.101562 L 321.058594 205.101562 C 332.160156 205.101562 341.179688 196.082031 341.179688 184.980469 C 341.179688 180.5 339.667969 176.394531 337.171875 173.050781 C 339.785156 166.097656 341.179688 158.824219 341.179688 151.339844 C 341.179688 117.1875 313.394531 89.402344 279.246094 89.402344 L 261.324219 89.402344 C 247.882812 89.402344 236.09375 97.8125 231.613281 110.230469 C 231.59375 110.230469 231.59375 110.25 231.574219 110.25 L 151.933594 62.542969 C 144.722656 58.21875 135.289062 58.199219 128.078125 62.480469 L 89.664062 85.257812 L 89.664062 64.25 C 95.222656 64.25 99.722656 59.730469 99.722656 54.191406 L 99.722656 44.128906 C 99.722656 38.589844 95.222656 34.070312 89.664062 34.070312 L 39.359375 34.070312 C 33.816406 34.070312 29.296875 38.589844 29.296875 44.128906 L 29.296875 54.191406 C 29.296875 59.730469 33.816406 64.25 39.359375 64.25 L 39.359375 115.085938 L 36.84375 116.578125 C 33.34375 118.601562 30.851562 121.863281 29.808594 125.753906 C 28.765625 129.664062 29.316406 133.714844 31.339844 137.210938 C 34.035156 141.847656 39.042969 144.738281 44.410156 144.738281 C 46.136719 144.738281 47.808594 144.324219 49.417969 143.753906 L 49.417969 269.394531 C 46.355469 272.148438 44.390625 276.117188 44.390625 280.558594 L 44.390625 335.890625 L 29.296875 335.890625 L 29.296875 345.953125 L 341.179688 345.953125 L 341.179688 335.890625 L 326.089844 335.890625 L 326.089844 280.558594 C 326.089844 272.226562 319.332031 265.464844 311 265.464844 L 309.703125 265.464844 C 307.167969 255.660156 301.015625 247.386719 292.84375 241.984375 C 307.894531 235.832031 318.898438 221.84375 320.765625 205.101562 " fill-opacity="1" fill-rule="nonzero"/></g><path fill="#ff9157" d="M 255.664062 184.980469 L 255.664062 190.011719 L 265.726562 190.011719 L 265.726562 184.980469 C 265.726562 176.648438 258.964844 169.890625 250.632812 169.890625 C 242.324219 169.890625 235.542969 176.648438 235.542969 184.980469 L 235.542969 190.011719 L 245.605469 190.011719 L 245.605469 184.980469 C 245.605469 182.210938 247.863281 179.949219 250.632812 179.949219 C 253.425781 179.949219 255.664062 182.210938 255.664062 184.980469 " fill-opacity="1" fill-rule="nonzero"/><path fill="#ff9157" d="M 290.878906 169.890625 C 282.566406 169.890625 275.785156 176.648438 275.785156 184.980469 L 275.785156 190.011719 L 285.847656 190.011719 L 285.847656 184.980469 C 285.847656 182.210938 288.105469 179.949219 290.878906 179.949219 C 293.667969 179.949219 295.90625 182.210938 295.90625 184.980469 L 295.90625 190.011719 L 305.96875 190.011719 L 305.96875 184.980469 C 305.96875 176.648438 299.210938 169.890625 290.878906 169.890625 " fill-opacity="1" fill-rule="nonzero"/><path fill="#ff9157" d="M 119.84375 184.980469 L 79.601562 184.980469 L 79.601562 164.859375 L 119.84375 164.859375 Z M 129.90625 154.796875 L 69.539062 154.796875 L 69.539062 195.039062 L 129.90625 195.039062 L 129.90625 154.796875 " fill-opacity="1" fill-rule="nonzero"/><path fill="#ff9157" d="M 180.210938 195.039062 L 150.027344 195.039062 L 150.027344 174.917969 L 180.210938 174.917969 Z M 190.269531 164.859375 L 139.964844 164.859375 L 139.964844 205.101562 L 190.269531 205.101562 L 190.269531 164.859375 " fill-opacity="1" fill-rule="nonzero"/><path fill="#ff9157" d="M 180.210938 245.34375 L 150.027344 245.34375 L 150.027344 225.222656 L 180.210938 225.222656 Z M 190.269531 215.164062 L 139.964844 215.164062 L 139.964844 255.40625 L 190.269531 255.40625 L 190.269531 215.164062 " fill-opacity="1" fill-rule="nonzero"/></svg>