<svg xmlns="http://www.w3.org/2000/svg" xmlns:xlink="http://www.w3.org/1999/xlink" width="500" zoomAndPan="magnify" viewBox="0 0 375 374.999991" height="500" preserveAspectRatio="xMidYMid meet" version="1.0"><defs><clipPath id="e50209a5c7"><path d="M 6.550781 30.535156 L 368.800781 30.535156 L 368.800781 316.285156 L 6.550781 316.285156 Z M 6.550781 30.535156 " clip-rule="nonzero"/></clipPath></defs><g clip-path="url(#e50209a5c7)"><path fill="#c1ff72" d="M 187.5 107.6875 C 208.761719 107.6875 226.0625 90.386719 226.0625 69.125 C 226.0625 47.859375 208.761719 30.5625 187.5 30.5625 C 166.234375 30.5625 148.9375 47.859375 148.9375 69.125 C 148.9375 90.386719 166.234375 107.6875 187.5 107.6875 Z M 187.5 40.816406 C 203.109375 40.816406 215.804688 53.515625 215.804688 69.125 C 215.804688 84.734375 203.109375 97.429688 187.5 97.429688 C 171.890625 97.429688 159.191406 84.730469 159.191406 69.125 C 159.191406 53.515625 171.890625 40.816406 187.5 40.816406 Z M 292.195312 107.6875 C 313.460938 107.6875 330.757812 90.386719 330.757812 69.125 C 330.757812 47.859375 313.460938 30.5625 292.195312 30.5625 C 270.933594 30.5625 253.632812 47.859375 253.632812 69.125 C 253.632812 90.386719 270.933594 107.6875 292.195312 107.6875 Z M 292.195312 40.816406 C 307.804688 40.816406 320.503906 53.515625 320.503906 69.125 C 320.503906 84.734375 307.804688 97.429688 292.195312 97.429688 C 276.585938 97.429688 263.886719 84.730469 263.886719 69.125 C 263.886719 53.515625 276.585938 40.816406 292.195312 40.816406 Z M 342.753906 119.1875 L 32.246094 119.1875 C 18.09375 119.1875 6.578125 130.703125 6.578125 144.855469 L 6.578125 243.015625 C 6.578125 257.167969 18.09375 268.683594 32.246094 268.683594 L 35.125 268.683594 L 35.125 310.898438 C 35.125 313.726562 37.421875 316.023438 40.253906 316.023438 L 125.351562 316.023438 C 128.183594 316.023438 130.476562 313.726562 130.476562 310.898438 L 130.476562 157.992188 L 139.824219 157.992188 L 139.824219 310.898438 C 139.824219 313.726562 142.117188 316.023438 144.949219 316.023438 L 230.046875 316.023438 C 232.878906 316.023438 235.175781 313.726562 235.175781 310.898438 L 235.175781 157.992188 L 244.519531 157.992188 L 244.519531 310.898438 C 244.519531 313.726562 246.816406 316.023438 249.648438 316.023438 L 334.746094 316.023438 C 337.574219 316.023438 339.871094 313.726562 339.871094 310.898438 L 339.871094 268.683594 L 342.753906 268.683594 C 356.90625 268.683594 368.417969 257.167969 368.417969 243.015625 L 368.417969 144.855469 C 368.417969 130.703125 356.90625 119.1875 342.753906 119.1875 Z M 37.371094 182.914062 L 37.371094 129.441406 L 55.667969 129.441406 L 55.667969 182.914062 C 55.667969 187.957031 51.5625 192.0625 46.519531 192.0625 C 41.476562 192.0625 37.371094 187.957031 37.371094 182.914062 Z M 32.246094 258.429688 C 23.746094 258.429688 16.832031 251.515625 16.832031 243.015625 L 16.832031 144.855469 C 16.832031 138.15625 21.136719 132.457031 27.117188 130.339844 L 27.117188 182.914062 C 27.117188 189.359375 30.277344 195.074219 35.125 198.605469 L 35.125 258.429688 Z M 120.222656 305.769531 L 87.929688 305.769531 L 87.929688 264.234375 C 87.929688 261.402344 85.636719 259.105469 82.804688 259.105469 C 79.972656 259.105469 77.675781 261.402344 77.675781 264.234375 L 77.675781 305.769531 L 45.382812 305.769531 L 45.382812 202.28125 C 45.757812 202.300781 46.136719 202.316406 46.519531 202.316406 C 57.21875 202.316406 65.921875 193.613281 65.921875 182.914062 L 65.921875 129.441406 L 107.039062 129.441406 C 114.308594 129.441406 120.222656 135.355469 120.222656 142.628906 Z M 244.519531 142.628906 L 244.519531 147.738281 L 230.046875 147.738281 C 227.214844 147.738281 224.921875 150.03125 224.921875 152.863281 L 224.921875 305.769531 L 192.628906 305.769531 L 192.628906 264.234375 C 192.628906 261.402344 190.332031 259.105469 187.5 259.105469 C 184.667969 259.105469 182.371094 261.402344 182.371094 264.234375 L 182.371094 305.769531 L 150.078125 305.769531 L 150.078125 152.863281 C 150.078125 150.03125 147.78125 147.738281 144.949219 147.738281 L 130.476562 147.738281 L 130.476562 142.628906 C 130.476562 137.742188 128.976562 133.203125 126.410156 129.441406 L 248.589844 129.441406 C 246.019531 133.203125 244.519531 137.742188 244.519531 142.628906 Z M 336.875 182.914062 C 336.875 187.957031 332.773438 192.0625 327.726562 192.0625 C 322.683594 192.0625 318.582031 187.957031 318.582031 182.914062 L 318.582031 129.441406 L 336.875 129.441406 Z M 297.324219 305.769531 L 297.324219 264.234375 C 297.324219 261.402344 295.027344 259.105469 292.195312 259.105469 C 289.363281 259.105469 287.070312 261.402344 287.070312 264.234375 L 287.070312 305.769531 L 254.773438 305.769531 L 254.773438 142.628906 C 254.773438 135.355469 260.6875 129.441406 267.957031 129.441406 L 308.328125 129.441406 L 308.328125 182.914062 C 308.328125 193.613281 317.03125 202.316406 327.726562 202.316406 C 328.363281 202.316406 328.996094 202.28125 329.617188 202.222656 L 329.617188 305.769531 Z M 358.164062 243.015625 C 358.164062 251.515625 351.25 258.429688 342.753906 258.429688 L 339.871094 258.429688 L 339.871094 198.03125 C 344.292969 194.46875 347.128906 189.019531 347.128906 182.914062 L 347.128906 130.085938 C 353.5 131.976562 358.164062 137.878906 358.164062 144.855469 Z M 82.800781 107.6875 C 104.066406 107.6875 121.363281 90.386719 121.363281 69.125 C 121.363281 47.859375 104.066406 30.5625 82.800781 30.5625 C 61.539062 30.5625 44.238281 47.859375 44.238281 69.125 C 44.238281 90.386719 61.539062 107.6875 82.800781 107.6875 Z M 82.800781 40.816406 C 98.410156 40.816406 111.109375 53.515625 111.109375 69.125 C 111.109375 84.734375 98.410156 97.429688 82.800781 97.429688 C 67.191406 97.429688 54.496094 84.730469 54.496094 69.125 C 54.496094 53.515625 67.195312 40.816406 82.800781 40.816406 Z M 82.800781 40.816406 " fill-opacity="1" fill-rule="nonzero"/></g></svg>