<svg xmlns="http://www.w3.org/2000/svg" xmlns:xlink="http://www.w3.org/1999/xlink" width="500" zoomAndPan="magnify" viewBox="0 0 375 374.999991" height="500" preserveAspectRatio="xMidYMid meet" version="1.0"><path fill="#ff66c4" d="M 97.414062 145.898438 C 80.714844 145.898438 66.945312 159.082031 66.945312 175.488281 C 66.945312 191.894531 80.421875 205.078125 97.414062 205.078125 C 114.402344 205.078125 127.882812 191.894531 127.882812 175.488281 C 127.882812 159.082031 114.113281 145.898438 97.414062 145.898438 Z M 97.414062 193.652344 C 87.160156 193.652344 78.664062 185.449219 78.664062 175.78125 C 78.664062 166.113281 87.160156 157.910156 97.414062 157.910156 C 107.667969 157.910156 116.164062 166.113281 116.164062 175.78125 C 116.164062 185.449219 107.667969 193.652344 97.414062 193.652344 Z M 97.414062 193.652344 " fill-opacity="1" fill-rule="nonzero"/><path fill="#ff66c4" d="M 88.332031 253.125 C 88.332031 269.53125 101.808594 282.714844 118.796875 282.714844 C 135.789062 282.714844 149.265625 269.53125 149.265625 253.125 C 149.265625 236.71875 135.789062 223.535156 118.796875 223.535156 C 101.804688 223.535156 88.332031 236.71875 88.332031 253.125 Z M 137.550781 253.125 C 137.550781 263.085938 129.050781 270.996094 118.796875 270.996094 C 108.542969 270.996094 100.046875 262.792969 100.046875 253.125 C 100.046875 243.457031 108.542969 235.253906 118.796875 235.253906 C 129.050781 235.253906 137.550781 243.164062 137.550781 253.125 Z M 137.550781 253.125 " fill-opacity="1" fill-rule="nonzero"/><path fill="#ff66c4" d="M 213.425781 303.515625 C 213.425781 287.109375 199.949219 273.925781 182.957031 273.925781 C 165.964844 273.925781 152.488281 287.109375 152.488281 303.515625 C 152.488281 319.921875 165.964844 333.105469 182.957031 333.105469 C 199.949219 333.105469 213.425781 319.921875 213.425781 303.515625 Z M 164.503906 303.515625 C 164.503906 293.554688 173 285.644531 183.253906 285.644531 C 193.507812 285.644531 202.003906 293.847656 202.003906 303.515625 C 202.003906 313.183594 193.507812 321.386719 183.253906 321.386719 C 172.707031 321.679688 164.503906 313.476562 164.503906 303.515625 Z M 164.503906 303.515625 " fill-opacity="1" fill-rule="nonzero"/><path fill="#ff66c4" d="M 158.347656 118.945312 C 162.15625 113.964844 164.5 107.8125 164.5 101.074219 C 164.5 84.667969 151.023438 71.484375 134.035156 71.484375 C 126.121094 71.484375 119.09375 74.414062 113.527344 79.394531 C 117.628906 79.6875 121.4375 81.738281 124.367188 84.667969 L 125.246094 85.546875 C 127.882812 84.082031 130.8125 83.496094 134.035156 83.496094 C 144.289062 83.496094 152.785156 91.699219 152.785156 101.367188 C 152.785156 104.882812 151.609375 108.105469 150.144531 110.742188 Z M 158.347656 118.945312 " fill-opacity="1" fill-rule="nonzero"/><path fill="#ff66c4" d="M 13.039062 16.113281 C 9.816406 16.40625 7.765625 19.335938 8.058594 22.558594 C 8.351562 25.488281 10.988281 27.539062 13.917969 27.539062 C 27.6875 32.8125 32.960938 48.339844 38.820312 64.453125 C 46.4375 85.546875 55.519531 111.328125 87.746094 111.328125 C 88.332031 111.328125 89.210938 111.328125 89.796875 111.328125 C 89.503906 111.914062 89.503906 112.792969 89.503906 113.378906 C 89.503906 114.84375 90.089844 116.308594 91.261719 117.480469 L 339.988281 361.523438 C 343.503906 365.039062 348.195312 366.796875 352.292969 366.796875 C 355.808594 366.796875 359.324219 365.625 361.667969 362.988281 C 367.234375 357.421875 366.648438 347.753906 360.203125 341.015625 L 115.867188 92.578125 C 114.992188 91.40625 113.527344 90.820312 111.769531 90.820312 C 111.476562 90.820312 110.890625 90.820312 110.597656 90.820312 C 99.757812 42.773438 57.863281 9.667969 13.039062 16.113281 Z M 175.339844 169.628906 L 351.707031 349.21875 C 353.757812 351.269531 354.054688 353.90625 353.464844 354.785156 C 352.585938 355.664062 350.242188 355.371094 347.898438 353.320312 L 168.3125 176.660156 Z M 111.769531 105.175781 L 167.140625 161.425781 L 159.816406 168.75 L 103.5625 113.378906 Z M 49.660156 60.644531 C 45.558594 48.925781 41.164062 36.621094 33.253906 27.832031 C 65.773438 32.226562 93.605469 60.644531 100.050781 98.144531 C 65.773438 105.175781 58.742188 85.253906 49.660156 60.644531 Z M 49.660156 60.644531 " fill-opacity="1" fill-rule="nonzero"/><path fill="#ff66c4" d="M 307.46875 146.777344 C 307.761719 146.777344 308.054688 146.777344 308.347656 146.777344 L 313.035156 145.605469 C 314.5 145.3125 315.964844 144.140625 316.84375 142.96875 L 332.078125 117.1875 C 339.988281 103.710938 348.191406 89.941406 346.140625 72.070312 C 344.382812 57.128906 335.007812 42.773438 319.480469 31.054688 C 293.992188 11.71875 257.078125 0 222.804688 0 C 176.511719 0 133.742188 16.113281 100.632812 42.773438 C 102.976562 45.703125 105.320312 48.925781 107.371094 52.441406 C 138.71875 26.953125 179.152344 11.71875 222.804688 11.71875 C 254.738281 11.71875 288.722656 22.558594 311.867188 40.136719 C 320.945312 46.875 332.082031 58.300781 334.128906 73.242188 C 335.886719 87.011719 329.445312 98.144531 321.828125 111.035156 L 308.058594 134.765625 L 306.007812 135.351562 C 288.722656 136.816406 272.902344 145.019531 262.355469 157.617188 C 252.980469 168.75 248.585938 182.519531 249.757812 196.582031 C 250.636719 205.664062 253.859375 214.160156 258.839844 221.191406 L 272.902344 235.253906 C 284.035156 243.457031 298.390625 247.851562 313.625 247.265625 L 316.554688 250.78125 C 319.191406 254.296875 322.414062 258.105469 325.636719 261.914062 C 335.011719 273.046875 346.730469 286.816406 346.730469 297.949219 C 346.730469 302.050781 346.4375 305.859375 345.558594 309.375 L 354.929688 319.042969 C 357.277344 312.597656 358.445312 305.566406 358.445312 297.949219 C 358.445312 282.421875 345.554688 267.480469 334.421875 254.296875 C 331.199219 250.488281 327.980469 246.679688 325.632812 243.457031 C 325.632812 243.457031 325.339844 243.164062 325.339844 243.164062 L 320.066406 237.304688 C 318.894531 235.839844 317.136719 235.253906 315.085938 235.253906 C 287.546875 237.597656 263.234375 219.433594 261.179688 195.117188 C 260.300781 184.277344 263.820312 173.4375 271.144531 164.648438 C 279.933594 154.6875 293.113281 147.949219 307.46875 146.777344 Z M 307.46875 146.777344 " fill-opacity="1" fill-rule="nonzero"/><path fill="#ff66c4" d="M 48.78125 107.519531 C 37.0625 131.835938 30.324219 158.789062 30.324219 187.5 C 30.324219 290.917969 116.746094 375 223.097656 375 C 243.019531 375 285.792969 372.949219 318.308594 356.835938 L 309.519531 348.046875 C 278.46875 362.109375 237.746094 363.28125 223.386719 363.28125 C 123.488281 363.28125 42.335938 284.472656 42.335938 187.5 C 42.335938 161.71875 48.195312 137.109375 58.449219 115.136719 C 54.640625 112.792969 51.417969 110.449219 48.78125 107.519531 Z M 48.78125 107.519531 " fill-opacity="1" fill-rule="nonzero"/></svg>