<svg xmlns="http://www.w3.org/2000/svg" xmlns:xlink="http://www.w3.org/1999/xlink" width="500" zoomAndPan="magnify" viewBox="0 0 375 374.999991" height="500" preserveAspectRatio="xMidYMid meet" version="1.0"><defs><clipPath id="8b93685caf"><path d="M 6 7.460938 L 369 7.460938 L 369 288.710938 L 6 288.710938 Z M 6 7.460938 " clip-rule="nonzero"/></clipPath></defs><g clip-path="url(#8b93685caf)"><path fill="#c1ff72" d="M 323.496094 7.417969 L 201.941406 7.417969 C 200.449219 7.417969 198.960938 7.488281 197.480469 7.632812 C 195.996094 7.777344 194.523438 7.996094 193.058594 8.285156 C 191.597656 8.574219 190.152344 8.933594 188.726562 9.367188 C 187.296875 9.796875 185.894531 10.296875 184.519531 10.867188 C 183.140625 11.4375 181.792969 12.070312 180.476562 12.773438 C 179.164062 13.476562 177.882812 14.238281 176.644531 15.066406 C 175.402344 15.894531 174.207031 16.78125 173.054688 17.722656 C 171.898438 18.667969 170.796875 19.667969 169.742188 20.722656 C 168.6875 21.773438 167.683594 22.875 166.738281 24.027344 C 165.792969 25.179688 164.902344 26.375 164.074219 27.613281 C 163.246094 28.851562 162.476562 30.128906 161.773438 31.445312 C 161.070312 32.757812 160.433594 34.101562 159.859375 35.480469 C 159.289062 36.855469 158.785156 38.257812 158.351562 39.683594 C 157.917969 41.109375 157.554688 42.554688 157.261719 44.015625 C 156.96875 45.480469 156.75 46.953125 156.601562 48.433594 C 156.453125 49.917969 156.378906 51.40625 156.378906 52.894531 L 156.378906 78.046875 L 51.96875 78.046875 C 50.476562 78.046875 48.988281 78.121094 47.503906 78.269531 C 46.019531 78.417969 44.546875 78.636719 43.085938 78.929688 C 41.625 79.21875 40.179688 79.582031 38.75 80.015625 C 37.324219 80.449219 35.921875 80.953125 34.546875 81.527344 C 33.167969 82.097656 31.820312 82.734375 30.507812 83.4375 C 29.191406 84.144531 27.914062 84.910156 26.675781 85.738281 C 25.4375 86.566406 24.242188 87.457031 23.089844 88.402344 C 21.9375 89.347656 20.832031 90.351562 19.777344 91.40625 C 18.722656 92.460938 17.726562 93.5625 16.777344 94.71875 C 15.832031 95.871094 14.945312 97.066406 14.117188 98.308594 C 13.289062 99.546875 12.523438 100.824219 11.824219 102.140625 C 11.121094 103.457031 10.484375 104.804688 9.914062 106.179688 C 9.34375 107.558594 8.839844 108.960938 8.410156 110.386719 C 7.976562 111.816406 7.613281 113.261719 7.324219 114.722656 C 7.03125 116.1875 6.8125 117.660156 6.667969 119.144531 C 6.523438 120.628906 6.449219 122.117188 6.449219 123.605469 L 6.449219 192.683594 C 6.449219 194.042969 6.511719 195.398438 6.636719 196.75 C 6.757812 198.101562 6.941406 199.445312 7.1875 200.785156 C 7.429688 202.121094 7.730469 203.441406 8.09375 204.75 C 8.453125 206.0625 8.875 207.351562 9.351562 208.625 C 9.828125 209.894531 10.359375 211.144531 10.949219 212.367188 C 11.539062 213.589844 12.179688 214.785156 12.875 215.953125 C 13.570312 217.121094 14.316406 218.253906 15.113281 219.355469 C 15.910156 220.453125 16.757812 221.515625 17.648438 222.539062 C 18.539062 223.566406 19.476562 224.546875 20.457031 225.488281 C 21.4375 226.429688 22.457031 227.324219 23.515625 228.171875 C 24.574219 229.023438 25.671875 229.824219 26.804688 230.574219 C 27.933594 231.328125 29.097656 232.027344 30.292969 232.671875 C 31.484375 233.320312 32.707031 233.914062 33.953125 234.453125 C 35.199219 234.992188 36.46875 235.472656 37.757812 235.898438 C 39.050781 236.320312 40.355469 236.6875 41.679688 236.996094 C 43.003906 237.304688 44.335938 237.554688 45.679688 237.742188 L 45.679688 282.085938 C 45.683594 282.648438 45.761719 283.199219 45.910156 283.738281 C 46.0625 284.277344 46.28125 284.789062 46.570312 285.269531 C 46.855469 285.753906 47.199219 286.1875 47.605469 286.578125 C 48.007812 286.964844 48.457031 287.296875 48.949219 287.566406 C 49.4375 287.835938 49.957031 288.035156 50.503906 288.164062 C 51.046875 288.296875 51.601562 288.351562 52.160156 288.335938 C 52.722656 288.316406 53.269531 288.226562 53.804688 288.0625 C 54.34375 287.898438 54.847656 287.667969 55.320312 287.367188 L 133.242188 238.160156 L 173.816406 238.160156 C 175.300781 238.152344 176.78125 238.074219 178.257812 237.921875 C 179.734375 237.769531 181.203125 237.546875 182.65625 237.25 C 184.113281 236.957031 185.550781 236.589844 186.96875 236.152344 C 188.390625 235.71875 189.785156 235.210938 191.15625 234.640625 C 192.523438 234.066406 193.863281 233.425781 195.171875 232.722656 C 196.476562 232.019531 197.75 231.253906 198.980469 230.425781 C 200.214844 229.59375 201.402344 228.707031 202.546875 227.761719 C 203.691406 226.820312 204.789062 225.820312 205.835938 224.765625 C 206.886719 223.714844 207.878906 222.613281 208.820312 221.464844 C 209.757812 220.3125 210.640625 219.121094 211.464844 217.882812 C 212.285156 216.648438 213.046875 215.375 213.746094 214.0625 C 214.441406 212.753906 215.074219 211.410156 215.640625 210.039062 C 216.207031 208.664062 216.707031 207.269531 217.136719 205.847656 C 217.566406 204.425781 217.925781 202.988281 218.214844 201.53125 C 218.503906 200.074219 218.722656 198.605469 218.867188 197.128906 C 219.011719 195.648438 219.082031 194.167969 219.082031 192.683594 L 219.082031 167.535156 L 242.429688 167.535156 L 320.058594 216.660156 C 321.085938 217.292969 322.203125 217.613281 323.410156 217.621094 C 324.492188 217.621094 325.511719 217.371094 326.46875 216.867188 C 326.960938 216.59375 327.40625 216.257812 327.808594 215.863281 C 328.210938 215.46875 328.550781 215.027344 328.835938 214.539062 C 329.117188 214.054688 329.335938 213.539062 329.480469 212.996094 C 329.625 212.453125 329.699219 211.898438 329.699219 211.335938 L 329.699219 167.03125 C 331.042969 166.84375 332.375 166.59375 333.699219 166.285156 C 335.023438 165.976562 336.328125 165.613281 337.621094 165.1875 C 338.910156 164.761719 340.179688 164.28125 341.425781 163.742188 C 342.671875 163.203125 343.894531 162.609375 345.085938 161.964844 C 346.28125 161.316406 347.445312 160.617188 348.574219 159.863281 C 349.707031 159.113281 350.804688 158.3125 351.863281 157.464844 C 352.921875 156.613281 353.941406 155.71875 354.921875 154.777344 C 355.902344 153.835938 356.839844 152.855469 357.730469 151.828125 C 358.621094 150.804688 359.464844 149.742188 360.261719 148.644531 C 361.0625 147.542969 361.808594 146.410156 362.503906 145.242188 C 363.199219 144.078125 363.839844 142.882812 364.429688 141.65625 C 365.019531 140.433594 365.550781 139.183594 366.027344 137.914062 C 366.503906 136.640625 366.925781 135.351562 367.285156 134.042969 C 367.648438 132.730469 367.949219 131.410156 368.191406 130.074219 C 368.4375 128.734375 368.621094 127.390625 368.742188 126.039062 C 368.867188 124.6875 368.929688 123.332031 368.929688 121.972656 L 368.929688 52.894531 C 368.925781 51.410156 368.851562 49.925781 368.703125 48.445312 C 368.554688 46.964844 368.335938 45.492188 368.042969 44.035156 C 367.75 42.574219 367.390625 41.136719 366.957031 39.710938 C 366.523438 38.289062 366.019531 36.890625 365.449219 35.515625 C 364.878906 34.140625 364.242188 32.796875 363.542969 31.484375 C 362.839844 30.175781 362.074219 28.898438 361.25 27.664062 C 360.421875 26.425781 359.535156 25.230469 358.59375 24.082031 C 357.648438 22.933594 356.652344 21.832031 355.601562 20.777344 C 354.546875 19.726562 353.449219 18.726562 352.300781 17.78125 C 351.148438 16.835938 349.957031 15.949219 348.71875 15.121094 C 347.484375 14.296875 346.210938 13.53125 344.898438 12.828125 C 343.589844 12.125 342.246094 11.484375 340.871094 10.914062 C 339.5 10.34375 338.101562 9.839844 336.675781 9.40625 C 335.253906 8.972656 333.8125 8.605469 332.355469 8.3125 C 330.894531 8.019531 329.425781 7.796875 327.945312 7.648438 C 326.464844 7.5 324.980469 7.421875 323.496094 7.417969 Z M 206.507812 192.683594 C 206.507812 193.761719 206.453125 194.835938 206.347656 195.90625 C 206.242188 196.980469 206.082031 198.042969 205.871094 199.097656 C 205.660156 200.15625 205.398438 201.199219 205.082031 202.230469 C 204.769531 203.261719 204.40625 204.273438 203.992188 205.269531 C 203.582031 206.261719 203.121094 207.234375 202.613281 208.183594 C 202.101562 209.136719 201.550781 210.058594 200.953125 210.953125 C 200.351562 211.847656 199.710938 212.710938 199.027344 213.546875 C 198.34375 214.378906 197.621094 215.175781 196.859375 215.9375 C 196.097656 216.699219 195.300781 217.421875 194.46875 218.105469 C 193.636719 218.789062 192.773438 219.429688 191.875 220.027344 C 190.980469 220.628906 190.058594 221.179688 189.109375 221.6875 C 188.160156 222.195312 187.1875 222.65625 186.191406 223.070312 C 185.195312 223.484375 184.183594 223.847656 183.152344 224.160156 C 182.121094 224.472656 181.078125 224.734375 180.023438 224.945312 C 178.964844 225.160156 177.902344 225.316406 176.828125 225.425781 C 175.757812 225.53125 174.683594 225.585938 173.605469 225.585938 L 131.230469 225.585938 C 129.996094 225.578125 128.863281 225.914062 127.835938 226.59375 L 58.296875 270.644531 L 58.296875 231.707031 C 58.296875 231.292969 58.257812 230.882812 58.175781 230.480469 C 58.097656 230.074219 57.976562 229.679688 57.820312 229.300781 C 57.660156 228.917969 57.46875 228.554688 57.238281 228.210938 C 57.007812 227.871094 56.75 227.550781 56.457031 227.261719 C 56.164062 226.96875 55.847656 226.707031 55.503906 226.476562 C 55.160156 226.25 54.796875 226.054688 54.417969 225.898438 C 54.035156 225.738281 53.640625 225.621094 53.238281 225.539062 C 52.832031 225.457031 52.421875 225.417969 52.011719 225.417969 C 50.933594 225.417969 49.859375 225.363281 48.785156 225.257812 C 47.710938 225.148438 46.648438 224.992188 45.589844 224.78125 C 44.535156 224.570312 43.488281 224.304688 42.460938 223.992188 C 41.429688 223.679688 40.414062 223.316406 39.417969 222.902344 C 38.421875 222.492188 37.449219 222.03125 36.5 221.523438 C 35.550781 221.015625 34.625 220.460938 33.730469 219.863281 C 32.832031 219.261719 31.96875 218.621094 31.136719 217.9375 C 30.300781 217.257812 29.503906 216.535156 28.742188 215.773438 C 27.980469 215.011719 27.253906 214.214844 26.570312 213.378906 C 25.886719 212.546875 25.246094 211.683594 24.644531 210.789062 C 24.046875 209.894531 23.492188 208.96875 22.980469 208.019531 C 22.472656 207.070312 22.011719 206.097656 21.597656 205.105469 C 21.183594 204.109375 20.816406 203.09375 20.503906 202.066406 C 20.1875 201.035156 19.925781 199.992188 19.710938 198.933594 C 19.5 197.878906 19.339844 196.8125 19.230469 195.742188 C 19.125 194.667969 19.066406 193.59375 19.066406 192.515625 L 19.066406 123.605469 C 19.066406 122.527344 19.125 121.453125 19.230469 120.382812 C 19.339844 119.308594 19.5 118.246094 19.710938 117.1875 C 19.925781 116.132812 20.1875 115.089844 20.503906 114.058594 C 20.816406 113.027344 21.183594 112.015625 21.597656 111.019531 C 22.011719 110.023438 22.472656 109.050781 22.980469 108.101562 C 23.492188 107.152344 24.046875 106.230469 24.644531 105.332031 C 25.246094 104.4375 25.886719 103.574219 26.570312 102.742188 C 27.253906 101.910156 27.980469 101.113281 28.742188 100.351562 C 29.503906 99.589844 30.300781 98.867188 31.136719 98.183594 C 31.96875 97.5 32.832031 96.859375 33.730469 96.261719 C 34.625 95.660156 35.550781 95.109375 36.5 94.601562 C 37.449219 94.09375 38.421875 93.632812 39.417969 93.21875 C 40.414062 92.804688 41.429688 92.441406 42.460938 92.128906 C 43.488281 91.816406 44.535156 91.554688 45.589844 91.34375 C 46.648438 91.132812 47.710938 90.972656 48.785156 90.867188 C 49.859375 90.757812 50.933594 90.703125 52.011719 90.703125 L 173.5625 90.703125 C 174.640625 90.703125 175.714844 90.757812 176.789062 90.867188 C 177.859375 90.972656 178.925781 91.132812 179.980469 91.34375 C 181.035156 91.554688 182.078125 91.816406 183.109375 92.128906 C 184.140625 92.445312 185.152344 92.804688 186.148438 93.21875 C 187.144531 93.632812 188.117188 94.09375 189.066406 94.601562 C 190.015625 95.109375 190.9375 95.664062 191.835938 96.261719 C 192.730469 96.859375 193.59375 97.5 194.425781 98.183594 C 195.257812 98.867188 196.054688 99.589844 196.816406 100.351562 C 197.578125 101.113281 198.300781 101.910156 198.984375 102.746094 C 199.667969 103.578125 200.308594 104.441406 200.910156 105.335938 C 201.507812 106.230469 202.0625 107.15625 202.570312 108.105469 C 203.078125 109.054688 203.539062 110.027344 203.953125 111.023438 C 204.363281 112.015625 204.726562 113.03125 205.042969 114.058594 C 205.355469 115.089844 205.617188 116.132812 205.828125 117.191406 C 206.039062 118.246094 206.199219 119.3125 206.304688 120.382812 C 206.410156 121.457031 206.464844 122.53125 206.46875 123.605469 Z M 356.4375 121.972656 C 356.4375 123.050781 356.382812 124.125 356.273438 125.199219 C 356.164062 126.269531 356.003906 127.335938 355.792969 128.390625 C 355.578125 129.449219 355.316406 130.492188 355 131.523438 C 354.6875 132.550781 354.324219 133.566406 353.910156 134.5625 C 353.496094 135.554688 353.03125 136.527344 352.523438 137.476562 C 352.015625 138.425781 351.460938 139.351562 350.859375 140.246094 C 350.261719 141.140625 349.617188 142.003906 348.933594 142.835938 C 348.25 143.671875 347.527344 144.46875 346.761719 145.230469 C 346 145.992188 345.203125 146.710938 344.367188 147.394531 C 343.535156 148.078125 342.671875 148.71875 341.773438 149.320312 C 340.878906 149.917969 339.953125 150.472656 339.003906 150.980469 C 338.054688 151.488281 337.082031 151.949219 336.085938 152.359375 C 335.089844 152.773438 334.078125 153.136719 333.046875 153.449219 C 332.015625 153.761719 330.96875 154.027344 329.914062 154.238281 C 328.855469 154.449219 327.792969 154.605469 326.71875 154.714844 C 325.648438 154.820312 324.570312 154.875 323.496094 154.875 C 323.082031 154.875 322.671875 154.914062 322.265625 154.996094 C 321.863281 155.078125 321.46875 155.195312 321.089844 155.355469 C 320.707031 155.511719 320.34375 155.707031 320 155.933594 C 319.65625 156.164062 319.339844 156.425781 319.046875 156.71875 C 318.757812 157.007812 318.496094 157.328125 318.265625 157.667969 C 318.039062 158.011719 317.84375 158.375 317.683594 158.757812 C 317.527344 159.136719 317.410156 159.53125 317.328125 159.9375 C 317.246094 160.339844 317.207031 160.75 317.207031 161.164062 L 317.207031 199.933594 L 247.628906 155.882812 C 246.597656 155.203125 245.464844 154.867188 244.234375 154.875 L 219.082031 154.875 L 219.082031 123.605469 C 219.082031 122.117188 219.007812 120.632812 218.859375 119.152344 C 218.714844 117.667969 218.496094 116.199219 218.203125 114.738281 C 217.910156 113.277344 217.550781 111.835938 217.117188 110.410156 C 216.683594 108.984375 216.179688 107.585938 215.609375 106.210938 C 215.039062 104.835938 214.402344 103.488281 213.703125 102.175781 C 213 100.863281 212.234375 99.589844 211.40625 98.351562 C 210.578125 97.113281 209.691406 95.917969 208.746094 94.765625 C 207.804688 93.617188 206.804688 92.515625 205.75 91.460938 C 204.699219 90.410156 203.597656 89.410156 202.445312 88.464844 C 201.292969 87.519531 200.101562 86.632812 198.863281 85.804688 C 197.625 84.980469 196.347656 84.214844 195.035156 83.511719 C 193.722656 82.808594 192.378906 82.171875 191.003906 81.601562 C 189.628906 81.03125 188.226562 80.53125 186.804688 80.097656 C 185.378906 79.664062 183.9375 79.300781 182.476562 79.011719 C 181.015625 78.71875 179.542969 78.5 178.0625 78.351562 C 176.582031 78.203125 175.09375 78.128906 173.605469 78.128906 L 168.953125 78.128906 L 168.953125 52.980469 C 168.953125 51.902344 169.007812 50.828125 169.117188 49.757812 C 169.222656 48.683594 169.382812 47.621094 169.59375 46.5625 C 169.804688 45.507812 170.066406 44.464844 170.378906 43.433594 C 170.691406 42.402344 171.054688 41.390625 171.46875 40.394531 C 171.882812 39.398438 172.34375 38.425781 172.851562 37.476562 C 173.359375 36.527344 173.914062 35.605469 174.511719 34.710938 C 175.109375 33.8125 175.75 32.949219 176.433594 32.117188 C 177.117188 31.285156 177.839844 30.488281 178.601562 29.726562 C 179.363281 28.964844 180.160156 28.242188 180.996094 27.558594 C 181.828125 26.875 182.691406 26.234375 183.585938 25.636719 C 184.480469 25.035156 185.40625 24.484375 186.355469 23.972656 C 187.304688 23.464844 188.277344 23.003906 189.273438 22.59375 C 190.265625 22.179688 191.28125 21.816406 192.308594 21.503906 C 193.339844 21.191406 194.382812 20.925781 195.441406 20.714844 C 196.496094 20.503906 197.5625 20.347656 198.632812 20.238281 C 199.703125 20.132812 200.78125 20.078125 201.855469 20.078125 L 323.410156 20.078125 C 324.488281 20.078125 325.5625 20.132812 326.636719 20.238281 C 327.707031 20.347656 328.773438 20.503906 329.828125 20.714844 C 330.886719 20.925781 331.929688 21.1875 332.960938 21.503906 C 333.992188 21.816406 335.007812 22.179688 336 22.589844 C 336.996094 23.003906 337.96875 23.464844 338.921875 23.972656 C 339.871094 24.480469 340.792969 25.035156 341.691406 25.632812 C 342.585938 26.230469 343.453125 26.871094 344.285156 27.554688 C 345.117188 28.238281 345.917969 28.960938 346.679688 29.722656 C 347.441406 30.484375 348.164062 31.28125 348.847656 32.113281 C 349.535156 32.949219 350.175781 33.8125 350.777344 34.707031 C 351.375 35.601562 351.929688 36.523438 352.441406 37.476562 C 352.949219 38.425781 353.410156 39.398438 353.824219 40.390625 C 354.238281 41.386719 354.601562 42.398438 354.917969 43.429688 C 355.234375 44.460938 355.496094 45.503906 355.707031 46.5625 C 355.921875 47.617188 356.082031 48.683594 356.1875 49.753906 C 356.296875 50.828125 356.351562 51.902344 356.355469 52.980469 Z M 356.4375 121.972656 " fill-opacity="1" fill-rule="nonzero"/></g><path fill="#c1ff72" d="M 118.402344 116.398438 C 118.140625 115.878906 117.8125 115.402344 117.421875 114.972656 C 117.027344 114.542969 116.582031 114.175781 116.085938 113.871094 C 115.589844 113.566406 115.0625 113.332031 114.5 113.175781 C 113.941406 113.015625 113.371094 112.9375 112.789062 112.9375 C 112.203125 112.9375 111.632812 113.015625 111.074219 113.175781 C 110.511719 113.332031 109.984375 113.566406 109.488281 113.871094 C 108.992188 114.175781 108.546875 114.542969 108.152344 114.972656 C 107.761719 115.402344 107.433594 115.878906 107.171875 116.398438 L 68.398438 192.765625 C 68.1875 193.136719 68.015625 193.523438 67.882812 193.929688 C 67.75 194.332031 67.660156 194.746094 67.609375 195.167969 C 67.5625 195.59375 67.554688 196.015625 67.59375 196.441406 C 67.628906 196.863281 67.707031 197.28125 67.832031 197.6875 C 67.953125 198.097656 68.113281 198.488281 68.316406 198.863281 C 68.515625 199.238281 68.753906 199.589844 69.027344 199.914062 C 69.296875 200.242188 69.601562 200.539062 69.933594 200.804688 C 70.265625 201.070312 70.621094 201.300781 71 201.492188 C 71.382812 201.6875 71.777344 201.839844 72.1875 201.953125 C 72.597656 202.066406 73.015625 202.136719 73.441406 202.164062 C 73.863281 202.191406 74.289062 202.175781 74.710938 202.121094 C 75.132812 202.0625 75.542969 201.960938 75.945312 201.820312 C 76.347656 201.679688 76.730469 201.5 77.09375 201.28125 C 77.460938 201.058594 77.796875 200.804688 78.113281 200.519531 C 78.425781 200.230469 78.707031 199.914062 78.957031 199.566406 C 79.203125 199.222656 79.417969 198.855469 79.589844 198.46875 L 92.960938 172.144531 L 132.613281 172.144531 L 145.816406 198.46875 C 145.992188 198.855469 146.203125 199.222656 146.453125 199.566406 C 146.699219 199.914062 146.980469 200.230469 147.296875 200.519531 C 147.609375 200.804688 147.949219 201.058594 148.3125 201.28125 C 148.675781 201.5 149.0625 201.679688 149.460938 201.820312 C 149.863281 201.960938 150.277344 202.0625 150.699219 202.121094 C 151.117188 202.179688 151.542969 202.191406 151.96875 202.164062 C 152.390625 202.136719 152.808594 202.066406 153.21875 201.953125 C 153.628906 201.839844 154.027344 201.6875 154.40625 201.492188 C 154.785156 201.300781 155.140625 201.070312 155.472656 200.804688 C 155.804688 200.539062 156.109375 200.242188 156.382812 199.917969 C 156.652344 199.589844 156.890625 199.238281 157.09375 198.863281 C 157.292969 198.488281 157.453125 198.097656 157.578125 197.6875 C 157.699219 197.28125 157.777344 196.863281 157.816406 196.441406 C 157.851562 196.015625 157.847656 195.59375 157.796875 195.167969 C 157.75 194.746094 157.65625 194.332031 157.523438 193.929688 C 157.390625 193.523438 157.21875 193.136719 157.007812 192.765625 Z M 99.332031 159.570312 L 112.789062 133.121094 L 126.199219 159.570312 Z M 99.332031 159.570312 " fill-opacity="1" fill-rule="nonzero"/><path fill="#c1ff72" d="M 299.433594 116.984375 L 274.914062 100.46875 C 280.003906 92.417969 284.195312 83.925781 287.488281 74.984375 L 295.871094 74.984375 C 296.285156 74.984375 296.695312 74.945312 297.097656 74.863281 C 297.503906 74.785156 297.898438 74.664062 298.277344 74.507812 C 298.660156 74.347656 299.023438 74.15625 299.363281 73.925781 C 299.707031 73.695312 300.027344 73.4375 300.316406 73.144531 C 300.609375 72.851562 300.871094 72.535156 301.101562 72.191406 C 301.328125 71.847656 301.523438 71.484375 301.679688 71.105469 C 301.839844 70.722656 301.957031 70.328125 302.039062 69.925781 C 302.117188 69.519531 302.160156 69.109375 302.160156 68.699219 C 302.160156 68.285156 302.117188 67.875 302.039062 67.472656 C 301.957031 67.066406 301.839844 66.671875 301.679688 66.292969 C 301.523438 65.910156 301.328125 65.546875 301.101562 65.207031 C 300.871094 64.863281 300.609375 64.542969 300.316406 64.253906 C 300.027344 63.960938 299.707031 63.699219 299.363281 63.46875 C 299.023438 63.242188 298.660156 63.046875 298.277344 62.890625 C 297.898438 62.730469 297.503906 62.613281 297.097656 62.53125 C 296.695312 62.453125 296.285156 62.410156 295.871094 62.410156 L 270.472656 62.410156 L 270.472656 49.332031 C 270.472656 48.921875 270.429688 48.511719 270.351562 48.105469 C 270.269531 47.703125 270.152344 47.308594 269.992188 46.925781 C 269.835938 46.546875 269.640625 46.183594 269.410156 45.839844 C 269.183594 45.496094 268.921875 45.179688 268.628906 44.886719 C 268.339844 44.597656 268.019531 44.335938 267.675781 44.105469 C 267.335938 43.875 266.972656 43.683594 266.589844 43.523438 C 266.207031 43.367188 265.816406 43.246094 265.410156 43.167969 C 265.007812 43.085938 264.597656 43.046875 264.183594 43.046875 C 263.769531 43.046875 263.363281 43.085938 262.957031 43.167969 C 262.554688 43.246094 262.160156 43.367188 261.777344 43.523438 C 261.398438 43.683594 261.035156 43.875 260.691406 44.105469 C 260.347656 44.335938 260.03125 44.597656 259.738281 44.886719 C 259.445312 45.179688 259.1875 45.496094 258.957031 45.839844 C 258.726562 46.183594 258.535156 46.546875 258.375 46.925781 C 258.21875 47.308594 258.097656 47.703125 258.019531 48.105469 C 257.9375 48.511719 257.898438 48.921875 257.898438 49.332031 L 257.898438 62.410156 L 229.644531 62.410156 C 229.234375 62.410156 228.824219 62.453125 228.417969 62.53125 C 228.015625 62.613281 227.621094 62.730469 227.242188 62.890625 C 226.859375 63.046875 226.496094 63.242188 226.152344 63.46875 C 225.808594 63.699219 225.492188 63.960938 225.199219 64.253906 C 224.910156 64.542969 224.648438 64.863281 224.417969 65.207031 C 224.1875 65.546875 223.996094 65.910156 223.835938 66.292969 C 223.679688 66.671875 223.558594 67.066406 223.480469 67.472656 C 223.398438 67.875 223.359375 68.285156 223.359375 68.699219 C 223.359375 69.109375 223.398438 69.519531 223.480469 69.925781 C 223.558594 70.328125 223.679688 70.722656 223.835938 71.105469 C 223.996094 71.484375 224.1875 71.847656 224.417969 72.191406 C 224.648438 72.535156 224.910156 72.851562 225.199219 73.144531 C 225.492188 73.4375 225.808594 73.695312 226.152344 73.925781 C 226.496094 74.15625 226.859375 74.347656 227.242188 74.507812 C 227.621094 74.664062 228.015625 74.785156 228.417969 74.863281 C 228.824219 74.945312 229.234375 74.984375 229.644531 74.984375 L 274.117188 74.984375 C 271.433594 81.394531 268.21875 87.53125 264.476562 93.386719 L 248.675781 82.738281 C 248.328125 82.507812 247.957031 82.3125 247.570312 82.152344 C 247.179688 81.996094 246.78125 81.875 246.371094 81.792969 C 245.957031 81.714844 245.542969 81.675781 245.125 81.675781 C 244.703125 81.679688 244.289062 81.722656 243.878906 81.804688 C 243.46875 81.886719 243.066406 82.011719 242.679688 82.171875 C 242.292969 82.335938 241.925781 82.535156 241.578125 82.769531 C 241.230469 83.003906 240.910156 83.269531 240.617188 83.566406 C 240.320312 83.863281 240.058594 84.1875 239.824219 84.539062 C 239.59375 84.886719 239.398438 85.257812 239.242188 85.644531 C 239.082031 86.035156 238.960938 86.433594 238.882812 86.84375 C 238.804688 87.257812 238.765625 87.671875 238.765625 88.089844 C 238.769531 88.511719 238.8125 88.925781 238.894531 89.335938 C 238.980469 89.746094 239.101562 90.148438 239.265625 90.53125 C 239.429688 90.917969 239.628906 91.285156 239.863281 91.632812 C 240.097656 91.980469 240.363281 92.300781 240.660156 92.597656 C 240.960938 92.890625 241.285156 93.15625 241.632812 93.386719 L 257.226562 103.863281 C 252.339844 110.046875 246.929688 115.730469 241.003906 120.925781 C 240.695312 121.199219 240.417969 121.503906 240.167969 121.832031 C 239.917969 122.164062 239.703125 122.515625 239.523438 122.886719 C 239.34375 123.261719 239.203125 123.648438 239.097656 124.046875 C 238.992188 124.449219 238.929688 124.855469 238.90625 125.269531 C 238.882812 125.679688 238.898438 126.09375 238.953125 126.503906 C 239.011719 126.914062 239.109375 127.3125 239.242188 127.703125 C 239.378906 128.09375 239.550781 128.46875 239.761719 128.824219 C 239.972656 129.183594 240.214844 129.515625 240.488281 129.824219 C 240.761719 130.132812 241.066406 130.414062 241.394531 130.664062 C 241.726562 130.914062 242.078125 131.128906 242.449219 131.308594 C 242.820312 131.492188 243.207031 131.632812 243.609375 131.738281 C 244.007812 131.84375 244.414062 131.90625 244.828125 131.933594 C 245.242188 131.957031 245.652344 131.941406 246.0625 131.882812 C 246.472656 131.828125 246.875 131.730469 247.265625 131.597656 C 247.65625 131.460938 248.03125 131.289062 248.386719 131.082031 C 248.746094 130.871094 249.078125 130.628906 249.386719 130.355469 C 256.128906 124.445312 262.261719 117.964844 267.789062 110.90625 L 292.519531 127.671875 C 293.570312 128.378906 294.730469 128.730469 295.996094 128.71875 C 296.667969 128.71875 297.324219 128.613281 297.960938 128.402344 C 298.597656 128.1875 299.1875 127.882812 299.726562 127.484375 C 300.265625 127.082031 300.726562 126.609375 301.117188 126.0625 C 301.503906 125.511719 301.796875 124.917969 301.992188 124.277344 C 302.1875 123.632812 302.28125 122.976562 302.265625 122.304688 C 302.253906 121.636719 302.136719 120.984375 301.914062 120.347656 C 301.691406 119.714844 301.375 119.132812 300.964844 118.601562 C 300.554688 118.070312 300.074219 117.613281 299.519531 117.234375 Z M 299.433594 116.984375 " fill-opacity="1" fill-rule="nonzero"/></svg>