<svg xmlns="http://www.w3.org/2000/svg" xmlns:xlink="http://www.w3.org/1999/xlink" width="500" zoomAndPan="magnify" viewBox="0 0 375 374.999991" height="500" preserveAspectRatio="xMidYMid meet" version="1.0"><defs><clipPath id="88816b0c6b"><path d="M 0 9.375 L 372 9.375 L 372 362.625 L 0 362.625 Z M 0 9.375 " clip-rule="nonzero"/></clipPath></defs><g clip-path="url(#88816b0c6b)"><path fill="#ff66c4" d="M 185.988281 9.425781 C 182.925781 9.425781 180.496094 11.9375 180.496094 14.917969 L 180.496094 72.441406 C 180.496094 75.5 182.925781 77.933594 185.988281 77.933594 C 189.046875 77.933594 191.480469 75.5 191.480469 72.441406 L 191.480469 14.917969 C 191.480469 11.859375 189.046875 9.425781 185.988281 9.425781 Z M 93.921875 45.996094 C 93.042969 46.007812 92.15625 46.234375 91.347656 46.703125 C 88.679688 48.191406 87.734375 51.566406 89.226562 54.15625 C 89.226562 54.15625 89.226562 54.234375 89.304688 54.234375 L 111.75 93.238281 C 112.691406 95.042969 114.496094 96.0625 116.457031 96.0625 C 119.519531 96.0625 121.953125 93.628906 121.953125 90.566406 C 121.953125 89.625 121.714844 88.683594 121.246094 87.820312 L 98.800781 48.820312 C 97.777344 46.984375 95.863281 45.96875 93.921875 45.996094 Z M 279.429688 46.132812 C 277.484375 46.082031 275.589844 47.0625 274.511719 48.898438 L 252.0625 87.902344 C 250.574219 90.492188 251.4375 93.867188 254.027344 95.433594 C 256.617188 96.925781 259.992188 96.0625 261.5625 93.472656 L 261.5625 93.394531 L 284.082031 54.3125 C 285.574219 51.722656 284.710938 48.347656 282.042969 46.859375 C 281.210938 46.390625 280.3125 46.15625 279.429688 46.132812 Z M 185.910156 88.851562 C 163.996094 88.863281 142.082031 97.199219 125.324219 113.875 C 109.082031 129.808594 99.898438 151.546875 99.980469 174.304688 C 99.980469 193.609375 109.628906 210.714844 118.183594 225.707031 C 122.265625 232.847656 126.03125 239.59375 127.992188 245.246094 C 131.527344 255.761719 134.117188 266.589844 135.761719 277.578125 C 136 292.878906 148.398438 305.828125 163.152344 305.828125 L 208.746094 305.828125 C 223.421875 305.828125 235.898438 292.878906 236.132812 277.578125 C 237.78125 266.589844 240.371094 255.839844 243.902344 245.324219 C 245.867188 239.59375 249.632812 232.925781 253.632812 225.863281 C 262.1875 210.714844 271.917969 193.527344 271.917969 174.144531 C 271.917969 151.464844 262.816406 129.652344 246.492188 113.796875 C 229.738281 97.160156 207.824219 88.84375 185.910156 88.851562 Z M 185.917969 99.769531 C 205.039062 99.753906 224.167969 107.007812 238.804688 121.566406 C 252.929688 135.378906 260.933594 154.292969 260.933594 174.066406 C 260.933594 190.625 251.988281 206.476562 244.0625 220.445312 C 239.824219 227.980469 235.820312 235.042969 233.464844 241.714844 C 229.699219 253.015625 226.953125 264.550781 225.226562 276.320312 C 225.226562 276.636719 225.148438 276.871094 225.148438 277.183594 C 225.148438 286.523438 217.457031 294.84375 208.746094 294.84375 L 163.230469 294.84375 C 154.519531 294.84375 146.828125 286.523438 146.828125 277.183594 C 146.828125 276.949219 146.828125 276.636719 146.75 276.398438 C 145.023438 264.628906 142.199219 253.015625 138.433594 241.792969 C 136.15625 235.121094 132.074219 227.902344 127.757812 220.289062 C 119.910156 206.398438 110.964844 190.703125 110.964844 174.304688 C 110.964844 154.527344 118.96875 135.535156 133.09375 121.644531 C 147.691406 107.089844 166.800781 99.789062 185.917969 99.769531 Z M 28.421875 113.488281 C 26.476562 113.40625 24.542969 114.371094 23.464844 116.152344 C 21.894531 118.742188 22.757812 122.117188 25.347656 123.6875 L 25.425781 123.765625 L 64.273438 146.285156 C 66.863281 147.777344 70.234375 146.914062 71.804688 144.324219 C 73.375 141.734375 72.433594 138.359375 69.84375 136.792969 L 31 114.269531 C 30.1875 113.777344 29.304688 113.527344 28.421875 113.488281 Z M 345.671875 113.539062 C 344.792969 113.566406 343.90625 113.804688 343.097656 114.269531 L 304.25 136.792969 C 301.660156 138.28125 300.71875 141.65625 302.210938 144.324219 C 303.230469 145.972656 305.035156 146.992188 306.996094 146.992188 C 307.941406 146.992188 308.882812 146.757812 309.746094 146.285156 L 348.589844 123.765625 C 351.179688 122.195312 352.042969 118.820312 350.550781 116.230469 C 349.527344 114.449219 347.613281 113.484375 345.671875 113.539062 Z M 5.492188 206.164062 C 2.433594 206.164062 0 208.597656 0 211.65625 C 0 214.71875 2.433594 217.152344 5.492188 217.152344 L 62.78125 217.152344 C 65.839844 217.152344 68.273438 214.71875 68.273438 211.65625 C 68.273438 208.597656 65.839844 206.164062 62.78125 206.164062 Z M 309.195312 206.164062 C 306.136719 206.164062 303.703125 208.597656 303.703125 211.65625 C 303.703125 214.71875 306.136719 217.152344 309.195312 217.152344 L 366.484375 217.152344 C 369.542969 217.152344 371.976562 214.71875 371.976562 211.65625 C 371.976562 208.597656 369.542969 206.164062 366.484375 206.164062 Z M 149.105469 313.675781 C 146.042969 313.675781 143.609375 316.109375 143.609375 319.167969 C 143.609375 322.230469 146.042969 324.664062 149.105469 324.664062 L 222.871094 324.664062 C 225.933594 324.664062 228.367188 322.230469 228.367188 319.167969 C 228.367188 316.109375 225.933594 313.675781 222.871094 313.675781 Z M 156.953125 332.511719 C 153.890625 332.511719 151.457031 334.945312 151.457031 338.003906 C 151.457031 341.066406 153.890625 343.496094 156.953125 343.496094 L 215.023438 343.496094 C 218.085938 343.496094 220.519531 341.066406 220.519531 338.003906 C 220.519531 334.945312 218.085938 332.511719 215.023438 332.511719 Z M 164.800781 351.34375 C 161.738281 351.34375 159.304688 353.777344 159.304688 356.839844 C 159.304688 359.898438 161.738281 362.332031 164.800781 362.332031 L 207.175781 362.332031 C 210.238281 362.332031 212.671875 359.898438 212.671875 356.839844 C 212.671875 353.777344 210.238281 351.34375 207.175781 351.34375 Z M 164.800781 351.34375 " fill-opacity="1" fill-rule="nonzero"/></g></svg>