<svg xmlns="http://www.w3.org/2000/svg" xmlns:xlink="http://www.w3.org/1999/xlink" width="500" zoomAndPan="magnify" viewBox="0 0 375 374.999991" height="500" preserveAspectRatio="xMidYMid meet" version="1.0"><defs><clipPath id="eecfc8f2bd"><path d="M 11 10.070312 L 363 10.070312 L 363 361.070312 L 11 361.070312 Z M 11 10.070312 " clip-rule="nonzero"/></clipPath><clipPath id="2d67c908bb"><path d="M 269 10.070312 L 279 10.070312 L 279 42 L 269 42 Z M 269 10.070312 " clip-rule="nonzero"/></clipPath></defs><g clip-path="url(#eecfc8f2bd)"><path fill="#ffde59" d="M 15.527344 361.035156 L 308.054688 361.035156 C 308.078125 361.035156 308.097656 361.046875 308.121094 361.046875 C 308.230469 361.046875 308.34375 361.042969 308.457031 361.035156 L 357.71875 361.035156 C 360.140625 361.035156 362.105469 359.070312 362.105469 356.648438 C 362.105469 354.222656 360.140625 352.261719 357.71875 352.261719 L 329.277344 352.261719 C 336.855469 345.640625 341.648438 335.9375 341.648438 325.253906 C 341.648438 308.628906 330.117188 294.375 314.457031 290.445312 C 315.953125 286.449219 316.726562 282.214844 316.726562 277.941406 C 316.726562 258.136719 300.613281 242.023438 280.808594 242.023438 C 271.539062 242.023438 262.796875 245.546875 256.164062 251.832031 C 249.53125 245.546875 240.785156 242.023438 231.515625 242.023438 C 211.710938 242.023438 195.597656 258.136719 195.597656 277.941406 C 195.597656 282.234375 196.378906 286.492188 197.890625 290.507812 C 182.375 294.539062 170.953125 308.765625 170.953125 325.253906 C 170.953125 335.914062 175.761719 345.628906 183.347656 352.261719 L 90.40625 352.261719 L 90.40625 303.503906 C 110.570312 302.503906 129.617188 293.554688 143.101562 278.421875 C 157.386719 262.390625 164.171875 240.96875 161.707031 219.648438 L 143.179688 59.183594 C 139.949219 31.183594 116.226562 10.070312 88.003906 10.070312 C 60.234375 10.070312 36.5625 30.800781 32.933594 58.289062 L 11.800781 218.433594 C 8.960938 239.941406 15.539062 261.640625 29.851562 277.964844 C 43.078125 293.046875 61.738281 302.097656 81.632812 303.433594 L 81.632812 352.261719 L 15.527344 352.261719 C 13.105469 352.261719 11.140625 354.222656 11.140625 356.648438 C 11.140625 359.070312 13.105469 361.035156 15.527344 361.035156 Z M 36.449219 272.179688 C 23.804688 257.753906 17.992188 238.585938 20.496094 219.582031 L 41.628906 59.4375 C 44.6875 36.292969 64.621094 18.84375 88.003906 18.84375 C 111.769531 18.84375 131.742188 36.617188 134.464844 60.1875 L 152.996094 220.652344 C 155.167969 239.492188 149.175781 258.417969 136.550781 272.582031 C 124.726562 285.851562 108.070312 293.738281 90.40625 294.730469 L 90.40625 241.042969 L 122.960938 208.542969 C 124.671875 206.828125 124.675781 204.050781 122.964844 202.332031 C 121.25 200.621094 118.472656 200.625 116.761719 202.328125 L 90.40625 228.640625 L 90.40625 179.121094 L 115.148438 154.421875 C 116.859375 152.707031 116.863281 149.933594 115.152344 148.21875 C 113.441406 146.496094 110.664062 146.503906 108.949219 148.210938 L 90.40625 166.71875 L 90.40625 130.871094 C 90.40625 128.449219 88.445312 126.484375 86.019531 126.484375 C 83.597656 126.484375 81.632812 128.449219 81.632812 130.871094 L 81.632812 166.71875 L 63.097656 148.210938 C 61.378906 146.5 58.601562 146.5 56.890625 148.214844 C 55.179688 149.933594 55.183594 152.707031 56.898438 154.421875 L 81.632812 179.121094 L 81.632812 228.640625 L 55.285156 202.328125 C 53.566406 200.621094 50.789062 200.621094 49.082031 202.332031 C 47.367188 204.050781 47.371094 206.828125 49.085938 208.542969 L 81.632812 241.042969 L 81.632812 294.65625 C 64.265625 293.339844 48.007812 285.363281 36.449219 272.179688 Z M 179.726562 325.253906 C 179.726562 311.21875 190.6875 299.34375 204.675781 298.226562 C 206.183594 298.109375 207.523438 297.21875 208.21875 295.878906 C 208.917969 294.539062 208.875 292.9375 208.109375 291.632812 C 205.667969 287.464844 204.375 282.726562 204.375 277.941406 C 204.375 262.972656 216.550781 250.796875 231.515625 250.796875 C 239.804688 250.796875 247.539062 254.53125 252.734375 261.042969 C 254.398438 263.125 257.925781 263.125 259.59375 261.042969 C 264.789062 254.53125 272.519531 250.796875 280.808594 250.796875 C 295.773438 250.796875 307.953125 262.972656 307.953125 277.941406 C 307.953125 282.722656 306.660156 287.453125 304.21875 291.621094 C 303.453125 292.933594 303.417969 294.542969 304.121094 295.882812 C 304.828125 297.226562 306.179688 298.109375 307.691406 298.214844 C 321.8125 299.226562 332.875 311.101562 332.875 325.253906 C 332.875 339.28125 321.964844 351.097656 308.003906 352.261719 L 204.445312 352.261719 C 190.574219 351.027344 179.726562 339.195312 179.726562 325.253906 Z M 179.726562 325.253906 " fill-opacity="1" fill-rule="nonzero"/></g><path fill="#ffde59" d="M 313.046875 98.121094 C 313.046875 76.621094 295.554688 59.128906 274.054688 59.128906 C 252.554688 59.128906 235.066406 76.621094 235.066406 98.121094 C 235.066406 119.617188 252.554688 137.109375 274.054688 137.109375 C 295.554688 137.109375 313.046875 119.617188 313.046875 98.121094 Z M 274.054688 128.335938 C 257.394531 128.335938 243.839844 114.78125 243.839844 98.121094 C 243.839844 81.457031 257.394531 67.902344 274.054688 67.902344 C 290.71875 67.902344 304.269531 81.457031 304.269531 98.121094 C 304.269531 114.78125 290.71875 128.335938 274.054688 128.335938 Z M 274.054688 128.335938 " fill-opacity="1" fill-rule="nonzero"/><g clip-path="url(#2d67c908bb)"><path fill="#ffde59" d="M 278.441406 37.003906 L 278.441406 14.457031 C 278.441406 12.03125 276.480469 10.070312 274.054688 10.070312 C 271.632812 10.070312 269.667969 12.03125 269.667969 14.457031 L 269.667969 37.003906 C 269.667969 39.429688 271.632812 41.390625 274.054688 41.390625 C 276.480469 41.390625 278.441406 39.429688 278.441406 37.003906 Z M 278.441406 37.003906 " fill-opacity="1" fill-rule="nonzero"/></g><path fill="#ffde59" d="M 230.839844 59.292969 C 231.964844 59.292969 233.085938 58.863281 233.941406 58.003906 C 235.65625 56.292969 235.65625 53.515625 233.941406 51.800781 L 218 35.859375 C 216.285156 34.148438 213.507812 34.148438 211.796875 35.859375 C 210.082031 37.574219 210.082031 40.351562 211.796875 42.0625 L 227.738281 58.003906 C 228.597656 58.863281 229.71875 59.292969 230.839844 59.292969 Z M 230.839844 59.292969 " fill-opacity="1" fill-rule="nonzero"/><path fill="#ffde59" d="M 186.003906 98.121094 C 186.003906 100.542969 187.96875 102.507812 190.390625 102.507812 L 212.941406 102.507812 C 215.363281 102.507812 217.328125 100.542969 217.328125 98.121094 C 217.328125 95.695312 215.363281 93.730469 212.941406 93.730469 L 190.390625 93.730469 C 187.96875 93.730469 186.003906 95.695312 186.003906 98.121094 Z M 186.003906 98.121094 " fill-opacity="1" fill-rule="nonzero"/><path fill="#ffde59" d="M 214.898438 161.667969 C 216.019531 161.667969 217.140625 161.238281 218 160.382812 L 233.941406 144.4375 C 235.65625 142.722656 235.65625 139.945312 233.941406 138.234375 C 232.230469 136.519531 229.453125 136.519531 227.738281 138.234375 L 211.796875 154.179688 C 210.082031 155.890625 210.082031 158.667969 211.796875 160.382812 C 212.652344 161.238281 213.773438 161.667969 214.898438 161.667969 Z M 214.898438 161.667969 " fill-opacity="1" fill-rule="nonzero"/><path fill="#ffde59" d="M 269.667969 159.234375 L 269.667969 181.78125 C 269.667969 184.207031 271.632812 186.167969 274.054688 186.167969 C 276.480469 186.167969 278.441406 184.207031 278.441406 181.78125 L 278.441406 159.234375 C 278.441406 156.808594 276.480469 154.847656 274.054688 154.847656 C 271.632812 154.847656 269.667969 156.808594 269.667969 159.234375 Z M 269.667969 159.234375 " fill-opacity="1" fill-rule="nonzero"/><path fill="#ffde59" d="M 330.113281 160.382812 C 330.96875 161.238281 332.09375 161.667969 333.214844 161.667969 C 334.335938 161.667969 335.460938 161.238281 336.316406 160.382812 C 338.03125 158.667969 338.03125 155.890625 336.316406 154.179688 L 320.371094 138.234375 C 318.65625 136.519531 315.882812 136.519531 314.167969 138.234375 C 312.453125 139.945312 312.453125 142.722656 314.167969 144.4375 Z M 330.113281 160.382812 " fill-opacity="1" fill-rule="nonzero"/><path fill="#ffde59" d="M 362.105469 98.121094 C 362.105469 95.695312 360.140625 93.730469 357.71875 93.730469 L 335.167969 93.730469 C 332.746094 93.730469 330.78125 95.695312 330.78125 98.121094 C 330.78125 100.542969 332.746094 102.507812 335.167969 102.507812 L 357.71875 102.507812 C 360.140625 102.507812 362.105469 100.542969 362.105469 98.121094 Z M 362.105469 98.121094 " fill-opacity="1" fill-rule="nonzero"/><path fill="#ffde59" d="M 317.269531 59.292969 C 318.390625 59.292969 319.515625 58.863281 320.371094 58.003906 L 336.316406 42.0625 C 338.03125 40.351562 338.03125 37.574219 336.316406 35.859375 C 334.601562 34.148438 331.828125 34.148438 330.113281 35.859375 L 314.167969 51.800781 C 312.453125 53.515625 312.453125 56.292969 314.167969 58.003906 C 315.023438 58.863281 316.148438 59.292969 317.269531 59.292969 Z M 317.269531 59.292969 " fill-opacity="1" fill-rule="nonzero"/></svg>