<svg xmlns="http://www.w3.org/2000/svg" xmlns:xlink="http://www.w3.org/1999/xlink" width="500" zoomAndPan="magnify" viewBox="0 0 375 374.999991" height="500" preserveAspectRatio="xMidYMid meet" version="1.0"><defs><clipPath id="0c464c7896"><path d="M 3.257812 3.71875 L 375 3.71875 L 375 374.21875 L 3.257812 374.21875 Z M 3.257812 3.71875 " clip-rule="nonzero"/></clipPath></defs><g clip-path="url(#0c464c7896)"><path fill="#ffde59" d="M 369.117188 101.035156 L 369.101562 101.019531 L 345.160156 97.605469 C 341.800781 97.128906 339.453125 94.011719 339.9375 90.644531 C 340.167969 89.027344 341.03125 87.566406 342.339844 86.589844 L 361.6875 72.078125 C 364.410156 70.042969 364.957031 66.179688 362.917969 63.464844 L 340.761719 33.921875 C 338.722656 31.207031 334.859375 30.652344 332.144531 32.691406 L 312.804688 47.199219 C 310.097656 49.253906 306.234375 48.722656 304.179688 46.015625 C 303.179688 44.699219 302.757812 43.039062 302.996094 41.40625 L 306.421875 17.46875 C 306.90625 14.105469 304.566406 10.980469 301.203125 10.496094 L 264.667969 5.28125 C 261.308594 4.796875 258.183594 7.136719 257.699219 10.496094 L 254.277344 34.4375 C 253.800781 37.800781 250.683594 40.144531 247.3125 39.660156 C 245.699219 39.429688 244.238281 38.570312 243.261719 37.261719 L 228.75 17.914062 C 226.710938 15.199219 222.851562 14.644531 220.136719 16.683594 L 201.640625 30.5625 C 193.269531 29.667969 184.839844 29.667969 176.46875 30.5625 C 121.671875 36.824219 78.707031 80.519531 73.367188 135.417969 C 73.199219 137.15625 73.136719 138.886719 73.050781 140.617188 L 71.207031 140.617188 C 68.28125 140.617188 65.765625 142.679688 65.1875 145.539062 L 60.933594 165.765625 L 43.902344 154.019531 C 41.457031 152.332031 38.15625 152.632812 36.054688 154.734375 L 17.59375 173.195312 C 15.492188 175.296875 15.191406 178.589844 16.875 181.035156 L 28.570312 198.039062 L 8.335938 202.292969 C 5.5 202.914062 3.492188 205.421875 3.492188 208.324219 L 3.492188 232.941406 C 3.492188 235.847656 5.53125 238.363281 8.375 238.964844 L 28.609375 243.21875 L 16.914062 260.222656 C 15.230469 262.667969 15.53125 265.960938 17.628906 268.058594 L 36.09375 286.523438 C 38.195312 288.625 41.496094 288.921875 43.941406 287.238281 L 60.941406 275.515625 L 65.195312 295.746094 C 65.78125 298.609375 68.296875 300.664062 71.210938 300.671875 L 95.832031 300.671875 C 98.738281 300.671875 101.253906 298.632812 101.855469 295.785156 L 106.109375 275.554688 L 123.109375 287.246094 C 125.554688 288.929688 128.847656 288.632812 130.949219 286.53125 L 140.503906 276.945312 L 140.503906 294.484375 C 140.535156 303.242188 145.21875 311.316406 152.8125 315.679688 L 152.8125 349.875 C 152.8125 363.46875 163.835938 374.492188 177.429688 374.492188 L 202.046875 374.492188 C 215.640625 374.492188 226.667969 363.46875 226.667969 349.875 L 226.667969 315.679688 C 234.257812 311.316406 238.945312 303.242188 238.976562 294.484375 L 238.976562 270.128906 C 239.144531 259.882812 244.507812 250.421875 253.207031 245.003906 C 258.316406 241.6875 263.152344 237.988281 267.691406 233.925781 L 259.484375 224.757812 C 255.429688 228.394531 251.089844 231.710938 246.515625 234.671875 C 234.289062 242.34375 226.8125 255.699219 226.660156 270.128906 L 226.660156 294.484375 C 226.660156 301.285156 221.148438 306.792969 214.347656 306.792969 L 165.113281 306.792969 C 158.3125 306.792969 152.804688 301.285156 152.804688 294.484375 L 152.804688 269.613281 C 152.667969 255.457031 145.296875 242.359375 133.28125 234.878906 C 84.5 204.230469 69.804688 139.839844 100.453125 91.058594 C 119.472656 60.792969 152.660156 42.371094 188.410156 42.246094 C 188.316406 42.460938 188.238281 42.691406 188.171875 42.914062 C 187.9375 44.53125 188.363281 46.167969 189.347656 47.476562 L 203.855469 66.816406 C 205.386719 68.796875 205.535156 71.519531 204.226562 73.648438 C 202.964844 75.796875 200.53125 76.964844 198.070312 76.609375 L 174.128906 73.1875 C 170.769531 72.703125 167.644531 75.042969 167.167969 78.402344 L 161.945312 114.960938 C 161.460938 118.324219 163.796875 121.445312 167.160156 121.929688 L 191.101562 125.355469 C 194.464844 125.832031 196.800781 128.945312 196.324219 132.316406 C 196.09375 133.933594 195.230469 135.394531 193.925781 136.371094 L 174.585938 150.878906 C 171.859375 152.917969 171.316406 156.773438 173.351562 159.496094 L 195.507812 189.039062 C 197.546875 191.761719 201.410156 192.308594 204.125 190.269531 L 223.472656 175.757812 C 226.195312 173.71875 230.050781 174.28125 232.089844 177.003906 C 233.066406 178.304688 233.480469 179.945312 233.25 181.550781 L 229.835938 205.492188 C 229.351562 208.855469 231.691406 211.976562 235.050781 212.460938 L 271.609375 217.6875 C 271.894531 217.722656 272.1875 217.738281 272.476562 217.738281 C 275.539062 217.738281 278.140625 215.492188 278.578125 212.460938 L 281.996094 188.523438 C 282.472656 185.160156 285.585938 182.820312 288.957031 183.296875 C 290.570312 183.527344 292.035156 184.390625 293.011719 185.699219 L 307.519531 205.039062 C 309.558594 207.761719 313.421875 208.308594 316.136719 206.269531 L 345.675781 184.113281 C 348.402344 182.074219 348.945312 178.222656 346.910156 175.496094 L 332.398438 156.15625 C 330.875 154.171875 330.730469 151.464844 332.03125 149.324219 C 333.261719 147.148438 335.714844 145.972656 338.183594 146.371094 L 362.125 149.789062 C 365.488281 150.273438 368.609375 147.933594 369.09375 144.570312 L 374.3125 108.015625 C 374.796875 104.652344 372.457031 101.527344 369.09375 101.042969 Z M 165.128906 319.101562 L 214.363281 319.101562 L 214.363281 331.414062 L 165.128906 331.414062 Z M 165.128906 343.722656 L 214.363281 343.722656 L 214.363281 349.875 C 214.363281 356.675781 208.855469 362.183594 202.054688 362.183594 L 177.4375 362.183594 C 170.636719 362.183594 165.128906 356.675781 165.128906 349.875 Z M 116.132812 237.589844 C 119.496094 240.335938 123.003906 242.894531 126.648438 245.25 C 132.464844 248.925781 136.84375 254.480469 139.050781 260.996094 L 125.847656 274.175781 L 113.0625 265.359375 C 107.460938 261.503906 99.800781 262.914062 95.945312 268.515625 C 95.023438 269.851562 94.367188 271.367188 94.039062 272.960938 L 90.816406 288.332031 L 76.183594 288.332031 L 72.960938 272.992188 C 71.558594 266.335938 65.027344 262.082031 58.382812 263.484375 C 56.789062 263.820312 55.273438 264.46875 53.933594 265.390625 L 41.148438 274.175781 L 29.933594 262.992188 L 38.742188 250.210938 C 42.601562 244.621094 41.195312 236.949219 35.601562 233.085938 C 34.253906 232.164062 32.746094 231.511719 31.148438 231.171875 L 15.808594 227.941406 L 15.808594 213.316406 L 31.148438 210.085938 C 37.792969 208.675781 42.046875 202.136719 40.632812 195.492188 C 40.292969 193.914062 39.65625 192.414062 38.75 191.082031 L 29.933594 178.265625 L 41.148438 167.082031 L 53.941406 175.898438 C 59.542969 179.75 67.203125 178.335938 71.058594 172.734375 C 71.980469 171.398438 72.628906 169.882812 72.96875 168.289062 L 74.042969 163.164062 C 75.027344 170.257812 76.660156 177.242188 78.921875 184.035156 C 58.671875 186.453125 44.210938 204.824219 46.625 225.070312 C 49.042969 245.320312 67.414062 259.78125 87.667969 257.367188 C 99.863281 255.914062 110.53125 248.496094 116.140625 237.582031 Z M 106.578125 228.917969 C 101.984375 241.695312 87.898438 248.320312 75.128906 243.726562 C 62.359375 239.132812 55.726562 225.046875 60.320312 212.277344 C 63.835938 202.507812 73.113281 196 83.5 196.015625 L 83.730469 196.015625 C 89.390625 208.214844 97.117188 219.347656 106.578125 228.917969 Z M 357.761719 136.710938 L 339.914062 134.164062 C 329.820312 132.722656 320.46875 139.734375 319.027344 149.832031 C 318.335938 154.679688 319.597656 159.605469 322.535156 163.519531 L 333.351562 177.9375 L 313.660156 192.707031 L 302.84375 178.289062 C 296.726562 170.136719 285.15625 168.472656 276.992188 174.597656 C 273.078125 177.535156 270.484375 181.90625 269.792969 186.753906 L 267.300781 204.625 L 242.9375 201.136719 L 245.484375 183.289062 C 246.929688 173.195312 239.921875 163.84375 229.820312 162.394531 C 224.972656 161.703125 220.042969 162.964844 216.125 165.902344 L 201.710938 176.71875 L 186.9375 157.027344 L 201.355469 146.210938 C 209.519531 140.09375 211.171875 128.523438 205.046875 120.363281 C 202.109375 116.445312 197.742188 113.851562 192.894531 113.160156 L 175.046875 110.613281 L 178.53125 86.25 L 196.378906 88.796875 C 206.472656 90.242188 215.828125 83.226562 217.273438 73.132812 C 217.964844 68.28125 216.703125 63.355469 213.765625 59.441406 L 202.917969 45.007812 L 222.613281 30.238281 L 233.429688 44.652344 C 239.542969 52.808594 251.113281 54.46875 259.277344 48.347656 C 263.191406 45.40625 265.785156 41.039062 266.476562 36.191406 L 269.023438 18.34375 L 293.386719 21.820312 L 290.839844 39.667969 C 289.402344 49.761719 296.410156 59.117188 306.511719 60.554688 C 311.359375 61.25 316.28125 59.988281 320.199219 57.046875 L 334.613281 46.230469 L 349.386719 65.925781 L 334.96875 76.742188 C 326.804688 82.859375 325.152344 94.4375 331.277344 102.589844 C 334.214844 106.507812 338.585938 109.097656 343.429688 109.792969 L 361.277344 112.335938 L 357.777344 136.695312 Z M 268.132812 62.242188 C 240.9375 62.242188 218.894531 84.28125 218.894531 111.476562 C 218.894531 138.671875 240.9375 160.710938 268.132812 160.710938 C 295.328125 160.710938 317.367188 138.671875 317.367188 111.476562 C 317.335938 84.296875 295.3125 62.269531 268.132812 62.242188 Z M 268.132812 148.402344 C 247.738281 148.402344 231.203125 131.871094 231.203125 111.476562 C 231.203125 91.082031 247.738281 74.550781 268.132812 74.550781 C 288.527344 74.550781 305.058594 91.082031 305.058594 111.476562 C 305.035156 131.863281 288.519531 148.378906 268.132812 148.402344 Z M 183.59375 276.023438 L 195.902344 276.023438 L 195.902344 294.484375 L 183.59375 294.484375 Z M 162.828125 215.578125 C 124.839844 200.738281 106.070312 157.902344 120.910156 119.914062 C 126.664062 105.191406 136.980469 92.703125 150.359375 84.289062 L 143.78125 73.871094 C 103.515625 99.238281 91.4375 152.441406 116.808594 192.699219 C 126.632812 208.292969 141.195312 220.324219 158.367188 227.03125 C 173.5625 232.855469 183.59375 247.441406 183.601562 263.714844 L 195.910156 263.714844 C 195.933594 242.367188 182.769531 223.21875 162.835938 215.578125 Z M 306.679688 232.941406 L 349.761719 232.941406 L 349.761719 245.25 L 306.679688 245.25 Z M 296.589844 274.589844 L 304.464844 265.136719 L 341.390625 295.902344 L 333.515625 305.355469 Z M 269.753906 282.175781 L 282.0625 282.175781 L 282.0625 325.257812 L 269.753906 325.257812 Z M 9.777344 110.03125 L 59.011719 97.722656 L 61.996094 109.652344 L 12.761719 121.960938 Z M 20 47.164062 L 27.148438 37.152344 L 70.226562 67.925781 L 63.082031 77.933594 Z M 72.726562 6.742188 L 84.652344 3.695312 L 97.238281 52.933594 L 85.3125 55.976562 Z M 72.726562 6.742188 " fill-opacity="1" fill-rule="nonzero"/></g></svg>