<svg xmlns="http://www.w3.org/2000/svg" xmlns:xlink="http://www.w3.org/1999/xlink" width="500" zoomAndPan="magnify" viewBox="0 0 375 374.999991" height="500" preserveAspectRatio="xMidYMid meet" version="1.0"><defs><clipPath id="c74991f7f7"><path d="M 38 41.816406 L 328 41.816406 L 328 339 L 38 339 Z M 38 41.816406 " clip-rule="nonzero"/></clipPath></defs><g clip-path="url(#c74991f7f7)"><path fill="#e64a9a" d="M 63.085938 141.402344 C 63.085938 125.6875 68.207031 112.179688 79.597656 101.234375 C 99.8125 81.808594 132.742188 82.074219 152.429688 102.117188 C 161.613281 111.386719 166.644531 122.597656 166.203125 135.839844 C 165.9375 145.019531 163.023438 153.671875 159.757812 162.148438 C 154.992188 174.417969 156.84375 185.71875 165.320312 195.695312 C 183.417969 216.882812 170.882812 248.3125 144.308594 253.34375 C 133.449219 255.375 123.648438 252.816406 114.734375 246.28125 C 102.285156 237.101562 93.015625 225.09375 85.246094 211.941406 C 75.976562 196.3125 69.179688 179.628906 65.734375 161.617188 C 64.5 154.996094 63.96875 148.199219 63.085938 141.402344 Z M 97.339844 121.890625 C 97.253906 122.15625 97.164062 122.332031 97.078125 122.597656 C 90.808594 122.242188 86.394531 125.15625 83.921875 130.894531 C 80.921875 137.78125 82.6875 143.960938 87.101562 149.523438 C 92.75 156.675781 100.167969 161.617188 108.113281 165.679688 C 118.441406 170.886719 115.882812 171.59375 125.0625 163.914062 C 132.390625 157.734375 139.097656 150.9375 142.894531 141.929688 C 144.75 137.695312 145.277344 133.28125 143.601562 128.777344 C 140.777344 121.007812 133.273438 116.59375 125.59375 119.066406 C 121.972656 120.214844 118.53125 122.597656 115.351562 124.890625 C 113.320312 126.304688 111.644531 126.746094 109.171875 125.773438 C 105.375 124.273438 101.3125 123.125 97.339844 121.890625 Z M 296.863281 234.804688 C 296.683594 247.339844 292.183594 258.640625 286.265625 269.324219 C 273.203125 292.894531 255.367188 312.050781 232.679688 326.707031 C 224.46875 332.09375 215.640625 336.242188 205.839844 338.273438 C 186.683594 342.332031 166.554688 328.738281 163.113281 309.492188 C 160.464844 294.484375 166.378906 280.976562 179.269531 273.03125 C 192.511719 264.910156 196.394531 252.816406 195.335938 237.984375 C 193.394531 210.175781 207.605469 188.722656 236.210938 183.425781 C 264.195312 178.304688 291.5625 198.34375 296.066406 226.59375 C 296.507812 229.242188 296.597656 232.066406 296.863281 234.804688 Z M 277.175781 238.777344 C 277.085938 230.921875 273.464844 226.152344 265.699219 224.742188 C 261.988281 224.035156 258.015625 224.300781 254.132812 224.300781 C 252.011719 224.300781 250.601562 223.679688 249.453125 221.828125 C 247.777344 219.355469 246.097656 216.882812 243.980469 214.851562 C 240.273438 211.144531 235.769531 209.027344 230.296875 210.527344 C 221.292969 212.910156 216.171875 221.210938 217.757812 230.921875 C 219.703125 242.398438 225.085938 252.285156 231.707031 261.554688 C 232.503906 262.703125 234.535156 263.144531 236.121094 263.410156 C 237.183594 263.671875 238.417969 263.144531 239.566406 262.96875 C 248.394531 261.730469 257.132812 259.964844 265.078125 255.640625 C 271.878906 252.109375 277.261719 247.339844 277.175781 238.777344 Z M 144.21875 45.261719 C 135.304688 50.734375 131.59375 63.625 135.566406 74.21875 C 140.246094 86.578125 153.84375 89.578125 163.113281 80.132812 C 170.441406 72.71875 172.207031 59.828125 166.820312 50.910156 C 163.730469 45.789062 159.40625 42.4375 152.785156 41.816406 C 149.957031 43.054688 146.867188 43.761719 144.21875 45.261719 Z M 251.128906 144.757812 C 248.304688 131.777344 234.796875 126.480469 224.734375 134.425781 C 215.90625 141.402344 213.257812 155.792969 218.996094 165.503906 C 224.734375 175.125 235.945312 176.890625 244.15625 169.300781 C 249.363281 164.441406 251.75 158.261719 251.835938 150.140625 C 251.660156 148.992188 251.570312 146.785156 251.128906 144.757812 Z M 105.375 72.363281 C 109.4375 77.574219 116.324219 78.542969 121.355469 74.570312 C 129.210938 68.304688 128.59375 54.089844 120.296875 48.4375 C 115.792969 45.347656 110.144531 45.878906 106.257812 49.675781 C 103.078125 52.851562 101.667969 56.738281 101.578125 60.359375 C 101.578125 65.300781 102.816406 69.097656 105.375 72.363281 Z M 257.574219 165.855469 C 258.105469 174.597656 266.316406 179.453125 274.261719 175.566406 C 281.058594 172.300781 284.941406 163.472656 283 155.878906 C 280.96875 147.847656 272.9375 144.492188 265.875 148.816406 C 260.222656 152.261719 257.664062 157.378906 257.574219 163.914062 C 257.574219 164.53125 257.574219 165.148438 257.574219 165.855469 Z M 92.308594 63.09375 C 89.484375 59.828125 85.863281 57.972656 81.363281 58.855469 C 77.214844 59.652344 74.652344 62.386719 73.683594 66.273438 C 72.535156 71.214844 73.503906 75.894531 76.773438 79.957031 C 80.125 84.105469 85.335938 86.046875 89.660156 84.457031 C 93.808594 82.957031 96.28125 78.898438 96.195312 73.160156 C 96.371094 69.449219 94.871094 66.007812 92.308594 63.09375 Z M 283.089844 181.039062 C 282.03125 188.808594 287.238281 194.371094 294.652344 193.3125 C 301.804688 192.253906 307.542969 185.367188 307.367188 178.128906 C 307.277344 172.300781 303.304688 168.417969 297.480469 168.417969 C 290.769531 168.503906 283.972656 174.332031 283.089844 181.039062 Z M 320.785156 206.820312 C 323.964844 200.726562 320.078125 194.195312 313.195312 193.929688 C 308.425781 193.753906 304.628906 195.695312 301.71875 199.316406 C 299.332031 202.316406 298.363281 205.761719 300.304688 209.378906 C 302.070312 212.734375 304.984375 214.234375 308.515625 214.058594 C 313.898438 214.058594 318.492188 211.320312 320.785156 206.820312 Z M 61.851562 99.203125 C 68.207031 100.878906 73.683594 96.640625 73.328125 90.550781 C 72.976562 84.636719 68.207031 79.339844 62.292969 78.277344 C 56.464844 77.308594 52.230469 80.839844 52.230469 86.753906 C 52.316406 92.492188 56.289062 97.789062 61.851562 99.203125 Z M 308.339844 223.503906 C 303.484375 228.625 305.511719 235.777344 312.222656 237.628906 C 315.488281 238.601562 318.578125 238.160156 321.582031 236.660156 C 325.816406 234.539062 328.203125 230.390625 327.320312 226.507812 C 326.4375 222.535156 322.550781 219.796875 317.785156 219.796875 C 314.078125 219.796875 310.546875 221.210938 308.339844 223.503906 Z M 38.898438 110.855469 C 39.871094 116.328125 46.933594 121.273438 52.40625 120.300781 C 58.9375 119.066406 61.675781 113.238281 58.320312 107.5 C 55.9375 103.261719 52.050781 101.234375 48.34375 101.054688 C 41.457031 101.054688 37.925781 105.117188 38.898438 110.855469 Z M 38.898438 110.855469 " fill-opacity="1" fill-rule="nonzero"/></g></svg>