<svg xmlns="http://www.w3.org/2000/svg" xmlns:xlink="http://www.w3.org/1999/xlink" width="500" zoomAndPan="magnify" viewBox="0 0 375 374.999991" height="500" preserveAspectRatio="xMidYMid meet" version="1.0"><defs><clipPath id="f38a79ab3f"><path d="M 21.375 199 L 75 199 L 75 253 L 21.375 253 Z M 21.375 199 " clip-rule="nonzero"/></clipPath><clipPath id="68158af564"><path d="M 21.375 82 L 191 82 L 191 136 L 21.375 136 Z M 21.375 82 " clip-rule="nonzero"/></clipPath><clipPath id="ca7307e162"><path d="M 210 24.351562 L 264 24.351562 L 264 194 L 210 194 Z M 210 24.351562 " clip-rule="nonzero"/></clipPath><clipPath id="edc65f5d99"><path d="M 203 220 L 335 220 L 335 337.851562 L 203 337.851562 Z M 203 220 " clip-rule="nonzero"/></clipPath><clipPath id="a2596ed9ac"><path d="M 184 252 L 353.625 252 L 353.625 306 L 184 306 Z M 184 252 " clip-rule="nonzero"/></clipPath></defs><path fill="#737373" d="M 48.109375 167.402344 L 163.652344 167.402344 C 167.839844 167.402344 171.257812 170.816406 171.257812 175.003906 L 171.257812 207.734375 C 169.683594 207.234375 168.011719 206.960938 166.277344 206.960938 L 161.515625 206.960938 C 152.433594 206.960938 145.007812 214.390625 145.007812 223.46875 L 145.007812 228.234375 C 145.007812 237.3125 152.433594 244.738281 161.515625 244.738281 L 166.277344 244.738281 C 168.011719 244.738281 169.683594 244.46875 171.257812 243.96875 L 171.257812 276.695312 C 171.257812 280.882812 167.839844 284.300781 163.652344 284.300781 L 48.109375 284.300781 C 43.921875 284.300781 40.507812 280.882812 40.507812 276.695312 L 40.507812 175.003906 C 40.507812 170.816406 43.921875 167.402344 48.109375 167.402344 Z M 48.109375 167.402344 " fill-opacity="1" fill-rule="evenodd"/><path fill="#737373" d="M 103.5 257.375 L 108.265625 257.375 C 121.539062 257.375 132.375 268.207031 132.375 281.484375 L 132.375 286.25 C 132.375 299.523438 121.539062 310.359375 108.265625 310.359375 L 103.5 310.359375 C 90.222656 310.359375 79.390625 299.523438 79.390625 286.25 L 79.390625 281.484375 C 79.390625 268.207031 90.222656 257.375 103.5 257.375 Z M 103.5 141.34375 L 108.265625 141.34375 C 121.539062 141.34375 132.375 152.175781 132.375 165.453125 L 132.375 170.21875 C 132.375 183.492188 121.539062 194.328125 108.265625 194.328125 L 103.5 194.328125 C 90.222656 194.328125 79.390625 183.492188 79.390625 170.21875 L 79.390625 165.453125 C 79.390625 152.179688 90.222656 141.34375 103.5 141.34375 Z M 103.5 141.34375 " fill-opacity="1" fill-rule="evenodd"/><path fill="#c1ff72" d="M 103.5 264.976562 L 108.265625 264.976562 C 117.34375 264.976562 124.769531 272.40625 124.769531 281.484375 L 124.769531 286.25 C 124.769531 295.328125 117.34375 302.753906 108.265625 302.753906 L 103.5 302.753906 C 94.421875 302.753906 86.992188 295.328125 86.992188 286.25 L 86.992188 281.484375 C 86.992188 272.40625 94.421875 264.976562 103.5 264.976562 Z M 103.5 264.976562 " fill-opacity="1" fill-rule="evenodd"/><path fill="#ffde59" d="M 103.5 148.945312 L 108.265625 148.945312 C 117.34375 148.945312 124.769531 156.375 124.769531 165.453125 L 124.769531 170.21875 C 124.769531 179.296875 117.34375 186.722656 108.265625 186.722656 L 103.5 186.722656 C 94.421875 186.722656 86.992188 179.296875 86.992188 170.21875 L 86.992188 165.453125 C 86.992188 156.375 94.421875 148.945312 103.5 148.945312 Z M 103.5 148.945312 " fill-opacity="1" fill-rule="evenodd"/><g clip-path="url(#f38a79ab3f)"><path fill="#737373" d="M 21.375 228.234375 L 21.375 223.46875 C 21.375 210.191406 32.207031 199.359375 45.484375 199.359375 L 50.25 199.359375 C 63.523438 199.359375 74.359375 210.191406 74.359375 223.46875 L 74.359375 228.234375 C 74.359375 241.507812 63.523438 252.34375 50.25 252.34375 L 45.484375 252.34375 C 32.207031 252.34375 21.375 241.507812 21.375 228.234375 Z M 21.375 228.234375 " fill-opacity="1" fill-rule="evenodd"/></g><path fill="#c1ff72" d="M 28.976562 228.234375 L 28.976562 223.46875 C 28.976562 214.390625 36.40625 206.960938 45.484375 206.960938 L 50.25 206.960938 C 59.328125 206.960938 66.753906 214.390625 66.753906 223.46875 L 66.753906 228.234375 C 66.753906 237.3125 59.328125 244.738281 50.25 244.738281 L 45.484375 244.738281 C 36.40625 244.738281 28.976562 237.3125 28.976562 228.234375 Z M 28.976562 228.234375 " fill-opacity="1" fill-rule="evenodd"/><path fill="#c1ff72" d="M 55.546875 175.003906 L 156.21875 175.003906 C 160.304688 175.003906 163.652344 178.351562 163.652344 182.441406 L 163.652344 206.960938 L 161.515625 206.960938 C 152.433594 206.960938 145.007812 214.390625 145.007812 223.46875 L 145.007812 228.234375 C 145.007812 237.3125 152.433594 244.738281 161.515625 244.738281 L 163.652344 244.738281 L 163.652344 269.261719 C 163.652344 273.351562 160.304688 276.695312 156.21875 276.695312 L 55.546875 276.695312 C 51.457031 276.695312 48.109375 273.351562 48.109375 269.261719 L 48.109375 182.441406 C 48.109375 178.351562 51.457031 175.003906 55.546875 175.003906 Z M 55.546875 175.003906 " fill-opacity="1" fill-rule="evenodd"/><path fill="#737373" d="M 48.109375 50.503906 L 163.652344 50.503906 C 167.839844 50.503906 171.257812 53.917969 171.257812 58.109375 L 171.257812 159.796875 C 171.257812 163.984375 167.839844 167.402344 163.652344 167.402344 L 48.109375 167.402344 C 43.921875 167.402344 40.507812 163.984375 40.507812 159.796875 L 40.507812 58.109375 C 40.507812 53.917969 43.921875 50.503906 48.109375 50.503906 Z M 48.109375 50.503906 " fill-opacity="1" fill-rule="evenodd"/><path fill="#737373" d="M 103.5 140.476562 L 108.265625 140.476562 C 121.539062 140.476562 132.375 151.308594 132.375 164.585938 L 132.375 169.351562 C 132.375 182.625 121.539062 193.460938 108.265625 193.460938 L 103.5 193.460938 C 90.222656 193.460938 79.390625 182.625 79.390625 169.351562 L 79.390625 164.585938 C 79.390625 151.308594 90.222656 140.476562 103.5 140.476562 Z M 103.5 140.476562 " fill-opacity="1" fill-rule="evenodd"/><path fill="#ff9157" d="M 103.5 148.078125 L 108.265625 148.078125 C 117.34375 148.078125 124.769531 155.507812 124.769531 164.585938 L 124.769531 169.351562 C 124.769531 178.429688 117.34375 185.855469 108.265625 185.855469 L 103.5 185.855469 C 94.421875 185.855469 86.992188 178.429688 86.992188 169.351562 L 86.992188 164.585938 C 86.992188 155.507812 94.421875 148.078125 103.5 148.078125 Z M 103.5 148.078125 " fill-opacity="1" fill-rule="evenodd"/><g clip-path="url(#68158af564)"><path fill="#737373" d="M 137.402344 111.335938 L 137.402344 106.570312 C 137.402344 93.292969 148.238281 82.460938 161.515625 82.460938 L 166.277344 82.460938 C 179.554688 82.460938 190.390625 93.292969 190.390625 106.570312 L 190.390625 111.335938 C 190.390625 124.609375 179.554688 135.445312 166.277344 135.445312 L 161.515625 135.445312 C 148.238281 135.445312 137.402344 124.609375 137.402344 111.335938 Z M 21.375 111.335938 L 21.375 106.570312 C 21.375 93.292969 32.207031 82.460938 45.484375 82.460938 L 50.25 82.460938 C 63.523438 82.460938 74.359375 93.292969 74.359375 106.570312 L 74.359375 111.335938 C 74.359375 124.609375 63.523438 135.445312 50.25 135.445312 L 45.484375 135.445312 C 32.207031 135.445312 21.375 124.609375 21.375 111.335938 Z M 21.375 111.335938 " fill-opacity="1" fill-rule="evenodd"/></g><path fill="#ffde59" d="M 145.007812 111.335938 L 145.007812 106.570312 C 145.007812 97.492188 152.433594 90.0625 161.515625 90.0625 L 166.277344 90.0625 C 175.359375 90.0625 182.785156 97.492188 182.785156 106.570312 L 182.785156 111.335938 C 182.785156 120.414062 175.359375 127.839844 166.277344 127.839844 L 161.515625 127.839844 C 152.433594 127.839844 145.007812 120.414062 145.007812 111.335938 Z M 145.007812 111.335938 " fill-opacity="1" fill-rule="evenodd"/><path fill="#ff9157" d="M 28.976562 111.335938 L 28.976562 106.570312 C 28.976562 97.492188 36.40625 90.0625 45.484375 90.0625 L 50.25 90.0625 C 59.328125 90.0625 66.753906 97.492188 66.753906 106.570312 L 66.753906 111.335938 C 66.753906 120.414062 59.328125 127.839844 50.25 127.839844 L 45.484375 127.839844 C 36.40625 127.839844 28.976562 120.414062 28.976562 111.335938 Z M 28.976562 111.335938 " fill-opacity="1" fill-rule="evenodd"/><path fill="#ff9157" d="M 55.546875 58.109375 L 156.21875 58.109375 C 160.304688 58.109375 163.652344 61.453125 163.652344 65.542969 L 163.652344 152.363281 C 163.652344 156.453125 160.304688 159.796875 156.21875 159.796875 L 55.546875 159.796875 C 51.457031 159.796875 48.109375 156.453125 48.109375 152.363281 L 48.109375 65.542969 C 48.109375 61.453125 51.457031 58.109375 55.546875 58.109375 Z M 55.546875 58.109375 " fill-opacity="1" fill-rule="evenodd"/><path fill="#737373" d="M 178.859375 50.503906 L 294.402344 50.503906 C 298.589844 50.503906 302.003906 53.917969 302.003906 58.105469 L 302.003906 159.796875 C 302.003906 163.984375 298.589844 167.402344 294.402344 167.402344 L 178.859375 167.402344 C 174.671875 167.402344 171.257812 163.984375 171.257812 159.796875 L 171.257812 58.105469 C 171.257812 53.917969 174.671875 50.503906 178.859375 50.503906 Z M 178.859375 50.503906 " fill-opacity="1" fill-rule="evenodd"/><g clip-path="url(#ca7307e162)"><path fill="#737373" d="M 234.246094 140.476562 L 239.011719 140.476562 C 252.289062 140.476562 263.121094 151.308594 263.121094 164.585938 L 263.121094 169.351562 C 263.121094 182.625 252.289062 193.460938 239.011719 193.460938 L 234.246094 193.460938 C 220.972656 193.460938 210.136719 182.625 210.136719 169.351562 L 210.136719 164.585938 C 210.136719 151.308594 220.972656 140.476562 234.246094 140.476562 Z M 234.246094 24.445312 L 239.011719 24.445312 C 252.289062 24.445312 263.121094 35.28125 263.121094 48.554688 L 263.121094 53.320312 C 263.121094 66.59375 252.289062 77.429688 239.011719 77.429688 L 234.246094 77.429688 C 220.972656 77.429688 210.136719 66.59375 210.136719 53.320312 L 210.136719 48.554688 C 210.136719 35.28125 220.972656 24.445312 234.246094 24.445312 Z M 234.246094 24.445312 " fill-opacity="1" fill-rule="evenodd"/></g><path fill="#e64a9a" d="M 234.246094 148.078125 L 239.011719 148.078125 C 248.09375 148.078125 255.519531 155.507812 255.519531 164.585938 L 255.519531 169.351562 C 255.519531 178.429688 248.09375 185.855469 239.011719 185.855469 L 234.246094 185.855469 C 225.167969 185.855469 217.742188 178.429688 217.742188 169.351562 L 217.742188 164.585938 C 217.742188 155.507812 225.167969 148.078125 234.246094 148.078125 Z M 234.246094 148.078125 " fill-opacity="1" fill-rule="evenodd"/><path fill="#e64a9a" d="M 234.246094 32.046875 L 239.011719 32.046875 C 248.09375 32.046875 255.519531 39.476562 255.519531 48.554688 L 255.519531 53.320312 C 255.519531 62.398438 248.09375 69.824219 239.011719 69.824219 L 234.246094 69.824219 C 225.167969 69.824219 217.742188 62.398438 217.742188 53.320312 L 217.742188 48.554688 C 217.742188 39.476562 225.167969 32.046875 234.246094 32.046875 Z M 234.246094 32.046875 " fill-opacity="1" fill-rule="evenodd"/><path fill="#737373" d="M 152.121094 111.335938 L 152.121094 106.570312 C 152.121094 93.292969 162.957031 82.460938 176.234375 82.460938 L 180.996094 82.460938 C 194.273438 82.460938 205.109375 93.292969 205.109375 106.570312 L 205.109375 111.335938 C 205.109375 124.609375 194.273438 135.445312 180.996094 135.445312 L 176.234375 135.445312 C 162.957031 135.445312 152.121094 124.609375 152.121094 111.335938 Z M 152.121094 111.335938 " fill-opacity="1" fill-rule="evenodd"/><path fill="#e64a9a" d="M 159.726562 111.335938 L 159.726562 106.570312 C 159.726562 97.492188 167.15625 90.0625 176.234375 90.0625 L 180.996094 90.0625 C 190.078125 90.0625 197.503906 97.492188 197.503906 106.570312 L 197.503906 111.335938 C 197.503906 120.414062 190.078125 127.839844 180.996094 127.839844 L 176.234375 127.839844 C 167.15625 127.839844 159.726562 120.414062 159.726562 111.335938 Z M 159.726562 111.335938 " fill-opacity="1" fill-rule="evenodd"/><path fill="#e64a9a" d="M 186.296875 58.105469 L 286.964844 58.105469 C 291.054688 58.105469 294.402344 61.453125 294.402344 65.542969 L 294.402344 152.363281 C 294.402344 156.453125 291.054688 159.796875 286.964844 159.796875 L 186.296875 159.796875 C 182.207031 159.796875 178.859375 156.453125 178.859375 152.363281 L 178.859375 65.542969 C 178.859375 61.453125 182.207031 58.105469 186.296875 58.105469 Z M 186.296875 58.105469 " fill-opacity="1" fill-rule="evenodd"/><g clip-path="url(#edc65f5d99)"><path fill="#737373" d="M 211.34375 220.496094 L 250.226562 220.496094 L 250.226562 223.3125 C 250.226562 232.394531 257.65625 239.820312 266.734375 239.820312 L 271.5 239.820312 C 280.578125 239.820312 288.003906 232.394531 288.003906 223.3125 L 288.003906 220.496094 L 326.886719 220.496094 C 331.074219 220.496094 334.492188 223.914062 334.492188 228.101562 L 334.492188 329.792969 C 334.492188 333.980469 331.074219 337.394531 326.886719 337.394531 L 211.34375 337.394531 C 207.15625 337.394531 203.742188 333.980469 203.742188 329.792969 L 203.742188 228.101562 C 203.742188 223.914062 207.15625 220.496094 211.34375 220.496094 Z M 211.34375 220.496094 " fill-opacity="1" fill-rule="evenodd"/></g><g clip-path="url(#a2596ed9ac)"><path fill="#737373" d="M 300.636719 281.328125 L 300.636719 276.5625 C 300.636719 263.289062 311.472656 252.453125 324.75 252.453125 L 329.515625 252.453125 C 342.789062 252.453125 353.625 263.289062 353.625 276.5625 L 353.625 281.328125 C 353.625 294.605469 342.789062 305.4375 329.515625 305.4375 L 324.75 305.4375 C 311.472656 305.4375 300.636719 294.605469 300.636719 281.328125 Z M 184.609375 281.328125 L 184.609375 276.5625 C 184.609375 263.289062 195.441406 252.453125 208.71875 252.453125 L 213.484375 252.453125 C 226.757812 252.453125 237.59375 263.289062 237.59375 276.5625 L 237.59375 281.328125 C 237.59375 294.605469 226.757812 305.4375 213.484375 305.4375 L 208.71875 305.4375 C 195.441406 305.4375 184.609375 294.605469 184.609375 281.328125 Z M 184.609375 281.328125 " fill-opacity="1" fill-rule="evenodd"/></g><path fill="#ff9157" d="M 308.242188 281.328125 L 308.242188 276.5625 C 308.242188 267.484375 315.671875 260.058594 324.75 260.058594 L 329.515625 260.058594 C 338.59375 260.058594 346.019531 267.484375 346.019531 276.5625 L 346.019531 281.328125 C 346.019531 290.40625 338.59375 297.835938 329.515625 297.835938 L 324.75 297.835938 C 315.671875 297.835938 308.242188 290.40625 308.242188 281.328125 Z M 308.242188 281.328125 " fill-opacity="1" fill-rule="evenodd"/><path fill="#ff9157" d="M 192.210938 281.328125 L 192.210938 276.5625 C 192.210938 267.484375 199.640625 260.058594 208.71875 260.058594 L 213.484375 260.058594 C 222.5625 260.058594 229.988281 267.484375 229.988281 276.5625 L 229.988281 281.328125 C 229.988281 290.40625 222.5625 297.835938 213.484375 297.835938 L 208.71875 297.835938 C 199.640625 297.835938 192.210938 290.40625 192.210938 281.328125 Z M 192.210938 281.328125 " fill-opacity="1" fill-rule="evenodd"/><path fill="#ff9157" d="M 218.78125 228.101562 L 250.941406 228.101562 C 253.003906 234.863281 259.316406 239.820312 266.734375 239.820312 L 271.5 239.820312 C 278.914062 239.820312 285.226562 234.863281 287.292969 228.101562 L 319.453125 228.101562 C 323.539062 228.101562 326.886719 231.445312 326.886719 235.535156 L 326.886719 322.355469 C 326.886719 326.445312 323.539062 329.792969 319.453125 329.792969 L 218.78125 329.792969 C 214.691406 329.792969 211.34375 326.445312 211.34375 322.355469 L 211.34375 235.535156 C 211.34375 231.445312 214.691406 228.101562 218.78125 228.101562 Z M 218.78125 228.101562 " fill-opacity="1" fill-rule="evenodd"/></svg>