<svg xmlns="http://www.w3.org/2000/svg" xmlns:xlink="http://www.w3.org/1999/xlink" width="500" zoomAndPan="magnify" viewBox="0 0 375 374.999991" height="500" preserveAspectRatio="xMidYMid meet" version="1.0"><defs><clipPath id="d9c0df1263"><path d="M 215 202 L 333.066406 202 L 333.066406 348 L 215 348 Z M 215 202 " clip-rule="nonzero"/></clipPath><clipPath id="10e3737ce2"><path d="M 23.316406 203 L 138 203 L 138 368.265625 L 23.316406 368.265625 Z M 23.316406 203 " clip-rule="nonzero"/></clipPath><clipPath id="b2350393e2"><path d="M 27 6.765625 L 329 6.765625 L 329 223 L 27 223 Z M 27 6.765625 " clip-rule="nonzero"/></clipPath></defs><path fill="#e64a9a" d="M 175.691406 180.757812 C 189.210938 180.757812 200.175781 169.632812 200.175781 155.78125 C 200.175781 141.945312 189.210938 130.804688 175.691406 130.804688 C 162.085938 130.804688 151.121094 141.925781 151.121094 155.78125 C 151.140625 169.617188 162.101562 180.757812 175.691406 180.757812 Z M 175.691406 180.757812 " fill-opacity="1" fill-rule="nonzero"/><path fill="#c1ff72" d="M 190.023438 286.386719 C 189.546875 286.070312 189.070312 285.753906 188.664062 285.507812 C 187.941406 286.386719 187.148438 287.269531 186.339844 288.148438 C 182.496094 292.628906 178.425781 296.945312 174.246094 300.875 C 165.679688 309.195312 156.796875 316.085938 148.003906 320.476562 C 148.003906 320.476562 172.324219 320.160156 208.898438 300.382812 C 205.691406 298.144531 202.660156 295.746094 199.539062 293.421875 C 196.421875 291.023438 193.230469 288.625 190.023438 286.386719 Z M 190.023438 286.386719 " fill-opacity="1" fill-rule="nonzero"/><path fill="#e64a9a" d="M 94.808594 168.382812 L 97.679688 169.617188 C 97.273438 169.898438 96.835938 170.214844 96.394531 170.535156 Z M 94.808594 168.382812 " fill-opacity="1" fill-rule="nonzero"/><path fill="#e64a9a" d="M 215.316406 249.8125 C 209.074219 236.929688 203.945312 224.203125 202.183594 214.527344 C 205.460938 212.921875 208.582031 211.160156 211.542969 209.167969 C 216.582031 205.960938 221.148438 202.296875 225.21875 198.609375 C 238.667969 186.519531 246.898438 173.96875 247.621094 172.84375 C 234.898438 180.050781 222.101562 184.84375 209.78125 187.804688 L 209.691406 187.804688 C 207.296875 188.441406 204.808594 188.933594 202.414062 189.410156 C 182.65625 193.09375 164.078125 192.371094 148.726562 189.972656 C 145.359375 189.5 142.167969 188.847656 139.207031 188.300781 C 120.242188 184.210938 107.832031 178.375 106.722656 177.902344 C 112.960938 186.378906 119.203125 193.429688 125.28125 199.191406 C 129.917969 203.597656 134.484375 207.195312 139.046875 210.15625 C 143.207031 212.957031 147.367188 215.109375 151.457031 216.800781 C 149.851562 225.050781 147.296875 236.964844 143.703125 250.097656 C 140.015625 263.226562 135.382812 277.699219 129.617188 291.144531 C 123.378906 305.953125 115.695312 319.558594 106.652344 328.832031 C 106.652344 328.832031 126.65625 321.460938 151.949219 295.148438 C 156.109375 290.898438 160.359375 286.105469 164.675781 280.816406 C 164.675781 280.816406 167.390625 278.101562 172.042969 276.253906 L 172.132812 276.253906 C 177.332031 274.242188 185.015625 273.449219 193.8125 279.300781 C 194.128906 279.460938 194.375 279.621094 194.691406 279.867188 C 202.058594 285.066406 209.25 290.988281 216.621094 296.027344 C 226.296875 302.515625 236.378906 307.46875 247.746094 306.902344 C 247.746094 306.902344 245.667969 303.625 242.230469 298.179688 C 235.636719 287.496094 224.355469 268.460938 215.316406 249.8125 Z M 215.316406 249.8125 " fill-opacity="1" fill-rule="nonzero"/><g clip-path="url(#d9c0df1263)"><path fill="#c1ff72" d="M 276.441406 244.773438 C 306.84375 241.40625 333.265625 220.765625 333.265625 220.765625 C 291.492188 228.203125 256.367188 216.042969 232.519531 202.753906 C 227.636719 207.316406 222.03125 211.882812 215.789062 215.882812 C 219.632812 221.488281 223.632812 226.125 227.882812 229.898438 C 225.871094 233.261719 223.316406 237.335938 220.445312 241.898438 C 233.644531 270.3125 254.125 302.074219 254.375 302.480469 L 261.96875 314.164062 L 254.601562 314.484375 C 263.734375 328.496094 273.003906 342.492188 288.285156 347.054688 C 288.285156 347.039062 271.328125 275.8125 276.441406 244.773438 Z M 276.441406 244.773438 " fill-opacity="1" fill-rule="nonzero"/></g><path fill="#c1ff72" d="M 247.324219 186.75 C 249.085938 194.503906 254.691406 201.238281 262.691406 204.109375 C 275.488281 208.675781 289.574219 201.785156 294.226562 188.828125 C 298.859375 175.785156 292.214844 161.542969 279.507812 156.980469 C 267.257812 152.660156 253.667969 158.8125 248.699219 170.992188 C 248.378906 171.46875 248.222656 171.871094 248.0625 172.347656 C 246.285156 177.144531 246.125 182.183594 247.324219 186.75 Z M 247.324219 186.75 " fill-opacity="1" fill-rule="nonzero"/><path fill="#ffde59" d="M 121.632812 298.953125 C 121.953125 298.390625 122.199219 297.792969 122.515625 297.191406 C 122.390625 297.542969 122.234375 297.878906 122.074219 298.195312 L 121.722656 298.917969 Z M 121.632812 298.953125 " fill-opacity="1" fill-rule="nonzero"/><g clip-path="url(#10e3737ce2)"><path fill="#ffde59" d="M 113.28125 303.097656 C 113.28125 303.097656 114.882812 299.660156 118.480469 296.453125 C 126.640625 279.65625 132.808594 259.964844 137.199219 243.082031 C 132.402344 237.722656 128.402344 232.59375 125.671875 227.957031 C 129.035156 224.433594 132.070312 220.679688 134.710938 216.746094 C 129.195312 213.222656 123.75 208.835938 118.460938 203.546875 C 72.28125 231.554688 23.316406 226.355469 23.316406 226.355469 C 45.085938 240.84375 63.414062 246.835938 78.855469 247.488281 C 82.855469 273.257812 90.296875 334.558594 75.332031 368.171875 C 75.332031 368.171875 89.503906 356.078125 103.425781 327.191406 C 105.753906 322.308594 108.148438 316.949219 110.390625 311.027344 C 111.359375 308.472656 112.328125 305.828125 113.28125 303.097656 Z M 113.28125 303.097656 " fill-opacity="1" fill-rule="nonzero"/></g><path fill="#ffde59" d="M 179.78125 282.703125 C 174.898438 282.792969 171.304688 285.578125 170.492188 286.300781 C 167.125 290.386719 163.847656 294.144531 160.65625 297.667969 C 163.617188 298.550781 166.492188 299.34375 169.382812 299.90625 C 174.742188 294.144531 178.898438 288.148438 181.472656 284.148438 C 180.910156 283.65625 180.34375 283.179688 179.78125 282.703125 Z M 179.78125 282.703125 " fill-opacity="1" fill-rule="nonzero"/><path fill="#ffde59" d="M 97.679688 169.632812 C 97.273438 169.917969 96.835938 170.234375 96.394531 170.550781 L 94.789062 168.382812 Z M 97.679688 169.632812 " fill-opacity="1" fill-rule="nonzero"/><path fill="#ffde59" d="M 89.203125 205.398438 C 97.117188 202.523438 102.652344 195.792969 104.414062 187.949219 C 105.292969 184.511719 105.382812 180.898438 104.570312 177.230469 C 104.414062 176.03125 104.097656 174.746094 103.621094 173.546875 C 98.828125 160.574219 84.65625 153.789062 72.015625 158.496094 C 59.292969 163.128906 52.804688 177.371094 57.617188 190.34375 C 62.304688 203.316406 76.476562 210.121094 89.203125 205.398438 Z M 89.203125 205.398438 " fill-opacity="1" fill-rule="nonzero"/><path fill="#ffde59" d="M 94.808594 168.382812 L 97.679688 169.617188 C 97.273438 169.898438 96.835938 170.214844 96.394531 170.535156 Z M 94.808594 168.382812 " fill-opacity="1" fill-rule="nonzero"/><path fill="#ff9157" d="M 44.554688 242.746094 C 40.554688 255.789062 38.386719 269.625 38.386719 283.992188 C 38.386719 293.3125 39.304688 302.425781 41.03125 311.238281 C 31.425781 291.269531 26.03125 268.886719 26.03125 245.230469 C 26.03125 241.160156 26.191406 237.160156 26.558594 233.15625 C 32.675781 236.945312 38.667969 240.15625 44.554688 242.746094 Z M 44.554688 242.746094 " fill-opacity="1" fill-rule="nonzero"/><g clip-path="url(#b2350393e2)"><path fill="#ff9157" d="M 328.015625 217.558594 C 321.296875 218.511719 314.496094 219.039062 307.78125 219.039062 C 305.894531 219.039062 304.027344 219.003906 302.175781 218.917969 C 298.894531 212.675781 295.175781 206.753906 291.054688 201.113281 C 294.050781 198.117188 296.445312 194.433594 297.980469 190.1875 C 303.339844 175.097656 295.652344 158.496094 280.8125 153.226562 C 277.816406 152.148438 274.644531 151.585938 271.453125 151.585938 C 262.289062 151.585938 253.933594 155.902344 248.644531 163.058594 C 234.648438 154.863281 219.085938 149.101562 202.519531 146.226562 C 198.675781 134.945312 188.082031 126.820312 175.675781 126.820312 C 162.878906 126.820312 151.949219 135.457031 148.355469 147.300781 C 132.316406 150.773438 117.316406 157.03125 103.867188 165.511719 C 98.507812 157.824219 89.714844 152.996094 80.265625 152.996094 C 76.953125 152.996094 73.710938 153.59375 70.589844 154.757812 C 63.503906 157.367188 57.828125 162.566406 54.671875 169.476562 C 51.394531 176.472656 51.113281 184.40625 53.828125 191.71875 C 55.714844 196.882812 58.957031 201.273438 63.0625 204.605469 C 59.34375 209.960938 56.03125 215.601562 53.070312 221.523438 C 45.191406 222.476562 38.351562 222.757812 33.0625 222.757812 C 30.949219 222.757812 29.152344 222.722656 27.707031 222.636719 C 36.996094 160.1875 84.265625 110.113281 145.234375 96.628906 C 134.273438 87.269531 127.273438 73.378906 127.273438 57.835938 C 127.273438 29.667969 150.117188 6.824219 178.28125 6.824219 C 206.484375 6.824219 229.328125 29.667969 229.328125 57.835938 C 229.328125 73.398438 222.328125 87.269531 211.367188 96.628906 C 270.660156 109.742188 316.980469 157.472656 328.015625 217.558594 Z M 328.015625 217.558594 " fill-opacity="1" fill-rule="nonzero"/></g><path fill="#ff9157" d="M 315.570312 311.152344 C 317.296875 302.355469 318.214844 293.261719 318.214844 283.992188 C 318.214844 268.199219 315.570312 252.988281 310.742188 238.78125 C 318.65625 235.097656 325.175781 231.148438 329.546875 228.222656 L 329.582031 228.222656 C 330.21875 233.773438 330.535156 239.46875 330.535156 245.230469 C 330.535156 268.832031 325.175781 291.234375 315.570312 311.152344 Z M 315.570312 311.152344 " fill-opacity="1" fill-rule="nonzero"/></svg>